<svg width="18" height="17" viewBox="0 0 18 17" fill="none" xmlns="http://www.w3.org/2000/svg">
<path d="M7.44594 0.885376V0.385376C7.1698 0.385376 6.94594 0.609234 6.94594 0.885376L7.44594 0.885376ZM10.5752 0.885376H11.0752C11.0752 0.609234 10.8514 0.385376 10.5752 0.385376V0.885376ZM10.5752 16.1145V16.6145C10.8514 16.6145 11.0752 16.3907 11.0752 16.1145H10.5752ZM7.44594 16.1145H6.94594C6.94594 16.3907 7.1698 16.6145 7.44594 16.6145V16.1145ZM16.6252 6.93532H17.1252C17.1252 6.65918 16.9013 6.43532 16.6252 6.43532L16.6252 6.93532ZM16.6252 10.0646L16.6252 10.5646C16.7578 10.5646 16.8849 10.5119 16.9787 10.4182C17.0725 10.3244 17.1252 10.1972 17.1252 10.0646H16.6252ZM1.396 10.0646H0.895996C0.895996 10.3407 1.11985 10.5646 1.396 10.5646L1.396 10.0646ZM1.396 6.93532L1.396 6.43532C1.26339 6.43532 1.13621 6.488 1.04244 6.58177C0.948675 6.67553 0.895996 6.80271 0.895996 6.93532H1.396ZM13.2885 2.00927L13.6421 1.65571C13.4476 1.46125 13.1326 1.46034 12.937 1.65369L13.2885 2.00927ZM15.5013 4.222L15.8569 4.57352C16.0502 4.37794 16.0493 4.06292 15.8548 3.86845L15.5013 4.222ZM4.73262 14.9907L4.37907 15.3442C4.57362 15.5388 4.88881 15.5396 5.08436 15.346L4.73262 14.9907ZM2.51989 12.7779L2.16452 12.4262C1.97097 12.6217 1.97178 12.9369 2.16633 13.1315L2.51989 12.7779ZM15.5013 12.7779L15.8548 13.1315C16.0475 12.9388 16.0504 12.6273 15.8614 12.431L15.5013 12.7779ZM13.2885 14.9907L12.9321 15.3413C13.0256 15.4363 13.1531 15.4901 13.2865 15.4906C13.4198 15.4912 13.5478 15.4385 13.6421 15.3442L13.2885 14.9907ZM2.51989 4.222L2.16634 3.86845C2.07257 3.96222 2.01989 4.08939 2.01989 4.222C2.01989 4.35461 2.07257 4.48179 2.16634 4.57556L2.51989 4.222ZM4.73263 2.00927L5.08618 1.65571C4.89092 1.46045 4.57433 1.46045 4.37907 1.65571L4.73263 2.00927ZM14.0576 10.0646L14.0576 9.5646L13.6987 9.5646L13.5839 9.9047L14.0576 10.0646ZM13.6914 10.8991L13.2529 10.6587L13.0762 10.9812L13.3313 11.246L13.6914 10.8991ZM11.4097 13.0804L11.7662 12.7298L11.5132 12.4727L11.1894 12.6316L11.4097 13.0804ZM10.5752 13.4039L10.4355 12.9238L10.0752 13.0287V13.4039H10.5752ZM7.44594 13.3384H7.94594V12.9794L7.60584 12.8646L7.44594 13.3384ZM6.71577 13.0278L6.94609 12.584L6.62287 12.4162L6.36404 12.6724L6.71577 13.0278ZM4.48276 10.7948L4.83812 11.1465L5.0943 10.8877L4.92655 10.5644L4.48276 10.7948ZM4.17217 10.0646L4.64591 9.9047L4.53111 9.5646L4.17217 9.5646L4.17217 10.0646ZM4.10663 6.93532L4.10663 7.43532L4.48184 7.43532L4.5867 7.07506L4.10663 6.93532ZM4.41982 6.12193L4.86966 6.34018L5.025 6.02001L4.77337 5.76838L4.41982 6.12193ZM6.56712 3.84376L6.21357 4.19731L6.48139 4.46513L6.81173 4.27984L6.56712 3.84376ZM7.44594 3.45293L7.60584 3.92667L7.94594 3.81187V3.45293H7.44594ZM10.5752 3.38739H10.0752V3.7626L10.4355 3.86746L10.5752 3.38739ZM11.514 3.76352L11.2837 4.20731L11.6067 4.37496L11.8655 4.1191L11.514 3.76352ZM13.747 5.99653L13.3914 5.64502L13.1356 5.90383L13.3032 6.22686L13.747 5.99653ZM14.1232 6.93532L13.6431 7.07506L13.7479 7.43532L14.1232 7.43532L14.1232 6.93532ZM7.44594 0.885376V1.38538H10.5752V0.885376V0.385376H7.44594V0.885376ZM10.5752 16.1145V15.6145H7.44594V16.1145V16.6145H10.5752V16.1145ZM16.6252 6.93532H16.1252V10.0646H16.6252H17.1252V6.93532H16.6252ZM1.396 10.0646H1.896V6.93532H1.396H0.895996V10.0646H1.396ZM13.2885 2.00927L12.935 2.36282L15.1477 4.57556L15.5013 4.222L15.8548 3.86845L13.6421 1.65571L13.2885 2.00927ZM4.73262 14.9907L5.08618 14.6371L2.87344 12.4244L2.51989 12.7779L2.16633 13.1315L4.37907 15.3442L4.73262 14.9907ZM15.5013 12.7779L15.1477 12.4244L12.935 14.6371L13.2885 14.9907L13.6421 15.3442L15.8548 13.1315L15.5013 12.7779ZM2.51989 4.222L2.87344 4.57556L5.08618 2.36282L4.73263 2.00927L4.37907 1.65571L2.16634 3.86845L2.51989 4.222ZM14.0576 10.0646L13.5839 9.9047C13.4953 10.1671 13.3842 10.4192 13.2529 10.6587L13.6914 10.8991L14.1298 11.1394C14.289 10.8489 14.4238 10.543 14.5314 10.2245L14.0576 10.0646ZM11.4097 13.0804L11.1894 12.6316C10.9489 12.7496 10.6968 12.8478 10.4355 12.9238L10.5752 13.4039L10.715 13.884C11.0323 13.7916 11.3382 13.6725 11.63 13.5293L11.4097 13.0804ZM7.44594 13.3384L7.60584 12.8646C7.37765 12.7876 7.15724 12.6936 6.94609 12.584L6.71577 13.0278L6.48545 13.4716C6.74153 13.6045 7.00901 13.7186 7.28603 13.8121L7.44594 13.3384ZM4.48276 10.7948L4.92655 10.5644C4.81697 10.3533 4.72293 10.1329 4.64591 9.9047L4.17217 10.0646L3.69843 10.2245C3.79193 10.5015 3.90606 10.769 4.03897 11.0251L4.48276 10.7948ZM4.10663 6.93532L4.5867 7.07506C4.66078 6.82059 4.75575 6.57498 4.86966 6.34018L4.41982 6.12193L3.96997 5.90367C3.83177 6.18852 3.71648 6.48663 3.62655 6.79557L4.10663 6.93532ZM6.56712 3.84376L6.81173 4.27984C7.06318 4.1388 7.32879 4.02019 7.60584 3.92667L7.44594 3.45293L7.28603 2.97919C6.94967 3.09272 6.62741 3.23666 6.32251 3.40768L6.56712 3.84376ZM10.5752 3.38739L10.4355 3.86746C10.7312 3.95354 11.015 4.06785 11.2837 4.20731L11.514 3.76352L11.7443 3.31973C11.4184 3.15057 11.074 3.01183 10.715 2.90731L10.5752 3.38739ZM13.747 5.99653L13.3032 6.22686C13.4427 6.49559 13.557 6.77935 13.6431 7.07506L14.1232 6.93532L14.6032 6.79557C14.4987 6.43654 14.36 6.09215 14.1908 5.76621L13.747 5.99653ZM7.44594 3.45293H7.94594V0.885376H7.44594H6.94594V3.45293H7.44594ZM10.5752 0.885376H10.0752V3.38739H10.5752H11.0752V0.885376H10.5752ZM4.73263 2.00927L4.37907 2.36282L6.21357 4.19731L6.56712 3.84376L6.92067 3.49021L5.08618 1.65571L4.73263 2.00927ZM4.41982 6.12193L4.77337 5.76838L2.87344 3.86845L2.51989 4.222L2.16634 4.57556L4.06626 6.47548L4.41982 6.12193ZM11.514 3.76352L11.8655 4.1191L13.6401 2.36485L13.2885 2.00927L12.937 1.65369L11.1625 3.40794L11.514 3.76352ZM15.5013 4.222L15.1457 3.87049L13.3914 5.64502L13.747 5.99653L14.1026 6.34805L15.8569 4.57352L15.5013 4.222ZM14.1232 6.93532L14.1232 7.43532L16.6252 7.43532L16.6252 6.93532L16.6252 6.43532L14.1232 6.43532L14.1232 6.93532ZM16.6252 10.0646L16.6252 9.5646L14.0576 9.5646L14.0576 10.0646L14.0576 10.5646L16.6252 10.5646L16.6252 10.0646ZM13.6914 10.8991L13.3313 11.246L15.1412 13.1248L15.5013 12.7779L15.8614 12.431L14.0515 10.5522L13.6914 10.8991ZM13.2885 14.9907L13.645 14.64L11.7662 12.7298L11.4097 13.0804L11.0532 13.431L12.9321 15.3413L13.2885 14.9907ZM10.5752 13.4039H10.0752V16.1145H10.5752H11.0752V13.4039H10.5752ZM7.44594 16.1145H7.94594V13.3384H7.44594H6.94594V16.1145H7.44594ZM6.71577 13.0278L6.36404 12.6724L4.38089 14.6353L4.73262 14.9907L5.08436 15.346L7.06751 13.3831L6.71577 13.0278ZM2.51989 12.7779L2.87525 13.1296L4.83812 11.1465L4.48276 10.7948L4.12739 10.443L2.16452 12.4262L2.51989 12.7779ZM4.17217 10.0646L4.17217 9.5646L1.396 9.5646L1.396 10.0646L1.396 10.5646L4.17217 10.5646L4.17217 10.0646ZM1.396 6.93532L1.396 7.43532L4.10663 7.43532L4.10663 6.93532L4.10663 6.43532L1.396 6.43532L1.396 6.93532ZM11.1719 8.03987L10.6816 8.13799C10.8686 9.07231 10.2672 9.94915 9.34369 10.1085L9.42872 10.6013L9.51375 11.094C10.9986 10.8377 11.9582 9.42101 11.6621 7.94176L11.1719 8.03987ZM9.42872 10.6013L9.34369 10.1085C8.40965 10.2697 7.49028 9.63861 7.30132 8.69435L6.81104 8.79247L6.32076 8.89058C6.61479 10.3599 8.03937 11.3484 9.51375 11.094L9.42872 10.6013ZM6.81104 8.79247L7.30132 8.69435C7.11435 7.76003 7.71569 6.88319 8.63922 6.72381L8.55419 6.23109L8.46916 5.73837C6.98427 5.99463 6.02474 7.41133 6.32076 8.89058L6.81104 8.79247ZM8.55419 6.23109L8.63922 6.72381C9.57326 6.56261 10.4926 7.19374 10.6816 8.13799L11.1719 8.03987L11.6621 7.94176C11.3681 6.47244 9.94354 5.48392 8.46916 5.73837L8.55419 6.23109Z" fill="#5EF1FA"/>
</svg>
