<svg width="16" height="16" viewBox="0 0 16 16" fill="none" xmlns="http://www.w3.org/2000/svg">
<g clip-path="url(#clip0_904_5649)">
<path d="M7.41569 10.291V8.20889H5.33358C5.00499 8.20889 4.73869 7.94259 4.73869 7.614C4.73869 7.28554 5.00499 7.01911 5.33358 7.01911H7.41569V4.937C7.41569 4.60853 7.682 4.34211 8.01058 4.34211C8.33916 4.34211 8.60547 4.60853 8.60547 4.937V7.01911H10.6876C11.0162 7.01911 11.2825 7.28554 11.2825 7.614C11.2825 7.94259 11.0162 8.20889 10.6876 8.20889H8.60547V10.291C8.60547 10.6196 8.33916 10.8859 8.01058 10.8859C7.682 10.8859 7.41569 10.6196 7.41569 10.291ZM13.3949 2.23025C11.9567 0.792063 10.0445 0 8.01058 0C5.97669 0 4.06444 0.792063 2.62625 2.23025C1.18806 3.66845 0.395996 5.58069 0.395996 7.61458C0.395996 9.64848 1.18806 11.5607 2.62625 12.9989C4.06444 14.4371 5.97669 15.2292 8.01058 15.2292C9.40299 15.2292 10.7654 14.8497 11.9506 14.1318C12.2316 13.9615 12.3214 13.5958 12.1512 13.3148C11.981 13.0338 11.6151 12.944 11.3342 13.1142C10.3349 13.7194 9.1856 14.0394 8.01058 14.0394C4.46797 14.0394 1.58577 11.1572 1.58577 7.61458C1.58577 4.07197 4.46797 1.18978 8.01058 1.18978C11.5532 1.18978 14.4354 4.07197 14.4354 7.61458C14.4354 8.8814 14.0587 10.1144 13.346 11.1805C13.1633 11.4536 13.2368 11.8231 13.5099 12.0057C13.783 12.1883 14.1525 12.1148 14.3351 11.8418C15.179 10.5794 15.6252 9.11761 15.6252 7.61458C15.6252 5.58069 14.8331 3.66845 13.3949 2.23025Z" fill="#5EF1FA"/>
</g>
<defs>
<clipPath id="clip0_904_5649">
<rect width="15.2292" height="15.2292" fill="white" transform="translate(0.395996)"/>
</clipPath>
</defs>
</svg>
