<svg width="20" height="20" viewBox="0 0 20 20" fill="none" xmlns="http://www.w3.org/2000/svg">
<path d="M13.6376 18.75H6.36262C5.5399 18.7805 4.73837 18.4852 4.13216 17.9281C3.52596 17.3711 3.16407 16.5973 3.12512 15.775V11.875C3.12512 11.7092 3.19096 11.5502 3.30817 11.433C3.42538 11.3158 3.58436 11.25 3.75012 11.25C3.91588 11.25 4.07485 11.3158 4.19206 11.433C4.30927 11.5502 4.37512 11.7092 4.37512 11.875V15.775C4.41353 16.2659 4.64351 16.722 5.01539 17.0447C5.38727 17.3675 5.87119 17.531 6.36262 17.5H13.6376C14.129 17.531 14.613 17.3675 14.9848 17.0447C15.3567 16.722 15.5867 16.2659 15.6251 15.775V11.875C15.6251 11.7092 15.691 11.5502 15.8082 11.433C15.9254 11.3158 16.0844 11.25 16.2501 11.25C16.4159 11.25 16.5748 11.3158 16.6921 11.433C16.8093 11.5502 16.8751 11.7092 16.8751 11.875V15.775C16.8362 16.5973 16.4743 17.3711 15.8681 17.9281C15.2619 18.4852 14.4603 18.7805 13.6376 18.75ZM18.5689 10.4437C18.6274 10.3856 18.6739 10.3165 18.7057 10.2403C18.7374 10.1642 18.7537 10.0825 18.7537 9.99996C18.7537 9.91745 18.7374 9.83576 18.7057 9.7596C18.6739 9.68344 18.6274 9.61431 18.5689 9.55621L10.4439 1.43121C10.3858 1.37263 10.3166 1.32614 10.2405 1.2944C10.1643 1.26267 10.0826 1.24634 10.0001 1.24634C9.91761 1.24634 9.83592 1.26267 9.75976 1.2944C9.68359 1.32614 9.61447 1.37263 9.55637 1.43121L1.43137 9.55621C1.31368 9.6739 1.24756 9.83352 1.24756 9.99996C1.24756 10.1664 1.31368 10.326 1.43137 10.4437C1.54906 10.5614 1.70868 10.6275 1.87512 10.6275C2.04155 10.6275 2.20118 10.5614 2.31887 10.4437L10.0001 2.75621L17.6814 10.4437C17.7395 10.5023 17.8086 10.5488 17.8848 10.5805C17.9609 10.6122 18.0426 10.6286 18.1251 10.6286C18.2076 10.6286 18.2893 10.6122 18.3655 10.5805C18.4416 10.5488 18.5108 10.5023 18.5689 10.4437Z" fill="#5EF1FA"/>
</svg>
