<svg width="19" height="22" viewBox="0 0 19 22" fill="none" xmlns="http://www.w3.org/2000/svg">
<path d="M6.83676 3.43509C6.83676 3.71124 7.06062 3.93509 7.33676 3.93509C7.61291 3.93509 7.83676 3.71124 7.83676 3.43509H6.83676ZM10.963 3.43509C10.963 3.71124 11.1869 3.93509 11.463 3.93509C11.7392 3.93509 11.963 3.71124 11.963 3.43509H10.963ZM16.0505 12.9588L15.6712 13.2845L15.6712 13.2845L16.0505 12.9588ZM17.986 16.3332L18.4798 16.2547L18.4798 16.2547L17.986 16.3332ZM9.49596 2.62624C9.21981 2.62624 8.99596 2.8501 8.99596 3.12624C8.99596 3.40238 9.21981 3.62624 9.49596 3.62624V2.62624ZM15.8355 8.41816L15.3381 8.46877L15.3381 8.46877L15.8355 8.41816ZM2.94946 12.9588L3.32878 13.2845L3.32878 13.2845L2.94946 12.9588ZM1.01402 16.3332L1.50782 16.4117L1.50782 16.4117L1.01402 16.3332ZM9.50404 3.62624C9.78019 3.62624 10.004 3.40238 10.004 3.12624C10.004 2.8501 9.78019 2.62624 9.50404 2.62624V3.62624ZM3.16451 8.41816L2.66708 8.36755L2.66708 8.36755L3.16451 8.41816ZM12.7012 17.7215H12.2012V18.0272H12.7012H13.2012V17.7215H12.7012ZM6.21704 18.0272H6.71704V17.7215H6.21704H5.71704V18.0272H6.21704ZM9.4591 21.0909V20.5909C7.91768 20.5909 6.71704 19.4168 6.71704 18.0272H6.21704H5.71704C5.71704 20.0216 7.41945 21.5909 9.4591 21.5909V21.0909ZM12.7012 18.0272H12.2012C12.2012 19.4168 11.0005 20.5909 9.4591 20.5909V21.0909V21.5909C11.4988 21.5909 13.2012 20.0216 13.2012 18.0272H12.7012ZM7.33676 3.43509H7.83676C7.83676 2.75253 8.03726 2.27124 8.31215 1.9668C8.58504 1.66456 8.96298 1.5 9.3999 1.5V1V0.5C8.69738 0.5 8.04375 0.771881 7.56993 1.29664C7.09811 1.81919 6.83676 2.55546 6.83676 3.43509H7.33676ZM9.3999 1V1.5C9.83682 1.5 10.2148 1.66456 10.4876 1.9668C10.7625 2.27124 10.963 2.75253 10.963 3.43509H11.463H11.963C11.963 2.55546 11.7017 1.81919 11.2299 1.29664C10.756 0.771881 10.1024 0.5 9.3999 0.5V1ZM16.0505 12.9588L15.6712 13.2845C15.7942 13.4278 15.9823 13.5939 16.1291 13.7335C16.2929 13.8893 16.4683 14.0673 16.6406 14.2914C16.9798 14.7328 17.3283 15.3813 17.4922 16.4117L17.986 16.3332L18.4798 16.2547C18.2892 15.0562 17.8722 14.2529 17.4334 13.682C17.2167 13.4 17 13.1818 16.8183 13.009C16.6197 12.82 16.509 12.7252 16.4299 12.633L16.0505 12.9588ZM9.49596 3.12624V3.62624C9.49719 3.62624 9.49843 3.62624 9.49969 3.62624L9.5 3.12624L9.50031 2.62624C9.49888 2.62624 9.49742 2.62624 9.49596 2.62624V3.12624ZM9.5 3.12624L9.49969 3.62624C12.6246 3.62821 15.0962 6.09151 15.3381 8.46877L15.8355 8.41816L16.3329 8.36755C16.0366 5.45501 13.1125 2.62851 9.50031 2.62624L9.5 3.12624ZM15.8355 8.41816L15.3381 8.46877C15.4683 9.74876 15.405 10.7094 15.3653 11.4448C15.3459 11.8044 15.3297 12.1433 15.3549 12.4302C15.3804 12.7199 15.4529 13.0303 15.6712 13.2845L16.0505 12.9588L16.4299 12.633C16.409 12.6087 16.3687 12.5431 16.3511 12.3426C16.3332 12.1394 16.3436 11.8741 16.3638 11.4988C16.4035 10.7646 16.4719 9.73352 16.3329 8.36755L15.8355 8.41816ZM2.94946 12.9588L2.57014 12.633C2.49095 12.7252 2.38029 12.82 2.18169 13.009C2.00001 13.1818 1.78334 13.4 1.56657 13.682C1.12781 14.2529 0.710784 15.0562 0.520224 16.2547L1.01402 16.3332L1.50782 16.4117C1.67166 15.3813 2.02016 14.7328 2.35943 14.2914C2.53167 14.0673 2.70714 13.8893 2.87089 13.7335C3.01773 13.5939 3.20578 13.4278 3.32878 13.2845L2.94946 12.9588ZM9.50404 3.12624V2.62624C9.50258 2.62624 9.50112 2.62624 9.49969 2.62624L9.5 3.12624L9.50031 3.62624C9.50157 3.62624 9.50281 3.62624 9.50404 3.62624V3.12624ZM9.5 3.12624L9.49969 2.62624C5.88751 2.62851 2.96342 5.45501 2.66708 8.36755L3.16451 8.41816L3.66194 8.46877C3.90382 6.09151 6.37539 3.62821 9.50031 3.62624L9.5 3.12624ZM3.16451 8.41816L2.66708 8.36755C2.52809 9.73352 2.5965 10.7646 2.63615 11.4988C2.65642 11.8741 2.66682 12.1394 2.64894 12.3426C2.63131 12.5431 2.59102 12.6087 2.57014 12.633L2.94946 12.9588L3.32878 13.2845C3.5471 13.0303 3.61963 12.7199 3.6451 12.4302C3.67033 12.1433 3.65411 11.8044 3.63469 11.4448C3.59497 10.7094 3.53171 9.74876 3.66194 8.46877L3.16451 8.41816ZM2.38551 17.7215V18.2215H16.6145V17.7215V17.2215H2.38551V17.7215ZM1.01402 16.3332L0.520224 16.2547C0.337495 17.404 1.35692 18.2215 2.38551 18.2215V17.7215V17.2215C1.78632 17.2215 1.44869 16.7836 1.50782 16.4117L1.01402 16.3332ZM17.986 16.3332L17.4922 16.4117C17.5513 16.7836 17.2137 17.2215 16.6145 17.2215V17.7215V18.2215C17.6431 18.2215 18.6625 17.404 18.4798 16.2547L17.986 16.3332Z" fill="#5EF1FA"/>
</svg>
