<svg width="17" height="22" viewBox="0 0 17 22" fill="none" xmlns="http://www.w3.org/2000/svg">
<path d="M6.17669 3.43509C6.17669 3.71124 6.40054 3.93509 6.67669 3.93509C6.95283 3.93509 7.17669 3.71124 7.17669 3.43509H6.17669ZM9.87313 3.43509C9.87313 3.71124 10.097 3.93509 10.3731 3.93509C10.6493 3.93509 10.8731 3.71124 10.8731 3.43509H9.87313ZM14.4828 12.9588L14.0865 13.2637L14.0865 13.2637L14.4828 12.9588ZM16.2166 16.3332L16.7116 16.2627L16.7116 16.2627L16.2166 16.3332ZM8.61096 2.62624C8.33482 2.62624 8.11096 2.8501 8.11096 3.12624C8.11096 3.40238 8.33482 3.62624 8.61096 3.62624V2.62624ZM14.2901 8.41816L13.7922 8.46355L13.7922 8.46355L14.2901 8.41816ZM2.74639 12.9588L3.14269 13.2637L3.14269 13.2637L2.74639 12.9588ZM1.01256 16.3332L1.50756 16.4037L1.50756 16.4037L1.01256 16.3332ZM8.61821 3.62624C8.89435 3.62624 9.11821 3.40238 9.11821 3.12624C9.11821 2.8501 8.89435 2.62624 8.61821 2.62624V3.62624ZM2.93904 8.41816L2.4411 8.37277L2.93904 8.41816ZM11.4823 17.7215H10.9823V18.0272H11.4823H11.9823V17.7215H11.4823ZM5.6736 18.0272H6.1736V17.7215H5.6736H5.1736V18.0272H5.6736ZM8.57795 21.0909V20.5909C7.2749 20.5909 6.1736 19.4686 6.1736 18.0272H5.6736H5.1736C5.1736 19.9699 6.67294 21.5909 8.57795 21.5909V21.0909ZM11.4823 18.0272H10.9823C10.9823 19.4686 9.881 20.5909 8.57795 20.5909V21.0909V21.5909C10.483 21.5909 11.9823 19.9699 11.9823 18.0272H11.4823ZM6.67669 3.43509H7.17669C7.17669 2.73913 7.36078 2.25027 7.60677 1.94616C7.8475 1.64855 8.16738 1.5 8.52491 1.5V1V0.5C7.86169 0.5 7.25746 0.787898 6.82927 1.31728C6.40633 1.84016 6.17669 2.56885 6.17669 3.43509H6.67669ZM8.52491 1V1.5C8.88244 1.5 9.20232 1.64855 9.44305 1.94616C9.68903 2.25027 9.87313 2.73913 9.87313 3.43509H10.3731H10.8731C10.8731 2.56885 10.6435 1.84016 10.2205 1.31728C9.79235 0.787898 9.18813 0.5 8.52491 0.5V1ZM14.4828 12.9588L14.0865 13.2637C14.1973 13.4077 14.3674 13.5755 14.4979 13.714C14.6439 13.8691 14.8006 14.0465 14.9547 14.2703C15.2586 14.7117 15.5736 15.3645 15.7216 16.4037L16.2166 16.3332L16.7116 16.2627C16.5422 15.073 16.1713 14.274 15.7783 13.7032C15.5839 13.4208 15.3893 13.2019 15.2259 13.0284C15.0469 12.8384 14.9494 12.7453 14.8791 12.6539L14.4828 12.9588ZM8.61096 3.12624V3.62624C8.61204 3.62624 8.61313 3.62624 8.61423 3.62624L8.61458 3.12624L8.61493 2.62624C8.61363 2.62624 8.6123 2.62624 8.61096 2.62624V3.12624ZM8.61458 3.12624L8.61423 3.62624C11.3422 3.62816 13.5716 6.04358 13.7922 8.46355L14.2901 8.41816L14.7881 8.37277C14.5265 5.50294 11.9223 2.62856 8.61493 2.62624L8.61458 3.12624ZM14.2901 8.41816L13.7922 8.46355C13.9093 9.74796 13.8524 10.7123 13.8168 11.4477C13.7993 11.808 13.7851 12.1431 13.8073 12.4257C13.8295 12.7075 13.8921 13.011 14.0865 13.2637L14.4828 12.9588L14.8791 12.6539C14.8592 12.6281 14.8207 12.5554 14.8042 12.3471C14.7879 12.1396 14.7975 11.8704 14.8156 11.496C14.8511 10.7618 14.9122 9.73432 14.7881 8.37277L14.2901 8.41816ZM2.74639 12.9588L2.3501 12.6539C2.2798 12.7453 2.18226 12.8384 2.00331 13.0284C1.83991 13.2019 1.6453 13.4208 1.45087 13.7032C1.05784 14.274 0.687012 15.073 0.517557 16.2627L1.01256 16.3332L1.50756 16.4037C1.65559 15.3645 1.97055 14.7117 2.27451 14.2703C2.42856 14.0465 2.58524 13.8691 2.73129 13.714C2.86179 13.5755 3.03186 13.4077 3.14269 13.2637L2.74639 12.9588ZM8.61821 3.12624V2.62624C8.61687 2.62624 8.61554 2.62624 8.61423 2.62624L8.61458 3.12624L8.61493 3.62624C8.61604 3.62624 8.61713 3.62624 8.61821 3.62624V3.12624ZM8.61458 3.12624L8.61423 2.62624C5.30684 2.62856 2.70268 5.50294 2.4411 8.37277L2.93904 8.41816L3.43697 8.46355C3.65755 6.04358 5.88701 3.62816 8.61493 3.62624L8.61458 3.12624ZM2.93904 8.41816L2.4411 8.37277C2.317 9.73432 2.37804 10.7618 2.41357 11.496C2.43169 11.8704 2.44127 12.1396 2.42492 12.3471C2.40851 12.5554 2.36995 12.6281 2.3501 12.6539L2.74639 12.9588L3.14269 13.2637C3.33711 13.011 3.39963 12.7075 3.42183 12.4257C3.44409 12.1431 3.42983 11.808 3.4124 11.4477C3.37682 10.7123 3.3199 9.74796 3.43697 8.46355L2.93904 8.41816ZM2.24118 17.7215V18.2215H14.988V17.7215V17.2215H2.24118V17.7215ZM1.01256 16.3332L0.517557 16.2627C0.362898 17.3485 1.23273 18.2215 2.24118 18.2215V17.7215V17.2215C1.79143 17.2215 1.44556 16.8391 1.50756 16.4037L1.01256 16.3332ZM16.2166 16.3332L15.7216 16.4037C15.7836 16.8391 15.4377 17.2215 14.988 17.2215V17.7215V18.2215C15.9964 18.2215 16.8663 17.3485 16.7116 16.2627L16.2166 16.3332Z" fill="#5EF1FA"/>
<path d="M6.17669 3.43509C6.17669 3.71124 6.40054 3.93509 6.67669 3.93509C6.95283 3.93509 7.17669 3.71124 7.17669 3.43509H6.17669ZM9.87313 3.43509C9.87313 3.71124 10.097 3.93509 10.3731 3.93509C10.6493 3.93509 10.8731 3.71124 10.8731 3.43509H9.87313ZM14.4828 12.9588L14.0865 13.2637L14.0865 13.2637L14.4828 12.9588ZM16.2166 16.3332L16.7116 16.2627L16.7116 16.2627L16.2166 16.3332ZM8.61096 2.62624C8.33482 2.62624 8.11096 2.8501 8.11096 3.12624C8.11096 3.40238 8.33482 3.62624 8.61096 3.62624V2.62624ZM14.2901 8.41816L13.7922 8.46355L13.7922 8.46355L14.2901 8.41816ZM2.74639 12.9588L3.14269 13.2637L3.14269 13.2637L2.74639 12.9588ZM1.01256 16.3332L1.50756 16.4037L1.50756 16.4037L1.01256 16.3332ZM8.61821 3.62624C8.89435 3.62624 9.11821 3.40238 9.11821 3.12624C9.11821 2.8501 8.89435 2.62624 8.61821 2.62624V3.62624ZM2.93904 8.41816L2.4411 8.37277L2.93904 8.41816ZM11.4823 17.7215H10.9823V18.0272H11.4823H11.9823V17.7215H11.4823ZM5.6736 18.0272H6.1736V17.7215H5.6736H5.1736V18.0272H5.6736ZM8.57795 21.0909V20.5909C7.2749 20.5909 6.1736 19.4686 6.1736 18.0272H5.6736H5.1736C5.1736 19.9699 6.67294 21.5909 8.57795 21.5909V21.0909ZM11.4823 18.0272H10.9823C10.9823 19.4686 9.881 20.5909 8.57795 20.5909V21.0909V21.5909C10.483 21.5909 11.9823 19.9699 11.9823 18.0272H11.4823ZM6.67669 3.43509H7.17669C7.17669 2.73913 7.36078 2.25027 7.60677 1.94616C7.8475 1.64855 8.16738 1.5 8.52491 1.5V1V0.5C7.86169 0.5 7.25746 0.787898 6.82927 1.31728C6.40633 1.84016 6.17669 2.56885 6.17669 3.43509H6.67669ZM8.52491 1V1.5C8.88244 1.5 9.20232 1.64855 9.44305 1.94616C9.68903 2.25027 9.87313 2.73913 9.87313 3.43509H10.3731H10.8731C10.8731 2.56885 10.6435 1.84016 10.2205 1.31728C9.79235 0.787898 9.18813 0.5 8.52491 0.5V1ZM14.4828 12.9588L14.0865 13.2637C14.1973 13.4077 14.3674 13.5755 14.4979 13.714C14.6439 13.8691 14.8006 14.0465 14.9547 14.2703C15.2586 14.7117 15.5736 15.3645 15.7216 16.4037L16.2166 16.3332L16.7116 16.2627C16.5422 15.073 16.1713 14.274 15.7783 13.7032C15.5839 13.4208 15.3893 13.2019 15.2259 13.0284C15.0469 12.8384 14.9494 12.7453 14.8791 12.6539L14.4828 12.9588ZM8.61096 3.12624V3.62624C8.61204 3.62624 8.61313 3.62624 8.61423 3.62624L8.61458 3.12624L8.61493 2.62624C8.61363 2.62624 8.6123 2.62624 8.61096 2.62624V3.12624ZM8.61458 3.12624L8.61423 3.62624C11.3422 3.62816 13.5716 6.04358 13.7922 8.46355L14.2901 8.41816L14.7881 8.37277C14.5265 5.50294 11.9223 2.62856 8.61493 2.62624L8.61458 3.12624ZM14.2901 8.41816L13.7922 8.46355C13.9093 9.74796 13.8524 10.7123 13.8168 11.4477C13.7993 11.808 13.7851 12.1431 13.8073 12.4257C13.8295 12.7075 13.8921 13.011 14.0865 13.2637L14.4828 12.9588L14.8791 12.6539C14.8592 12.6281 14.8207 12.5554 14.8042 12.3471C14.7879 12.1396 14.7975 11.8704 14.8156 11.496C14.8511 10.7618 14.9122 9.73432 14.7881 8.37277L14.2901 8.41816ZM2.74639 12.9588L2.3501 12.6539C2.2798 12.7453 2.18226 12.8384 2.00331 13.0284C1.83991 13.2019 1.6453 13.4208 1.45087 13.7032C1.05784 14.274 0.687012 15.073 0.517557 16.2627L1.01256 16.3332L1.50756 16.4037C1.65559 15.3645 1.97055 14.7117 2.27451 14.2703C2.42856 14.0465 2.58524 13.8691 2.73129 13.714C2.86179 13.5755 3.03186 13.4077 3.14269 13.2637L2.74639 12.9588ZM8.61821 3.12624V2.62624C8.61687 2.62624 8.61554 2.62624 8.61423 2.62624L8.61458 3.12624L8.61493 3.62624C8.61604 3.62624 8.61713 3.62624 8.61821 3.62624V3.12624ZM8.61458 3.12624L8.61423 2.62624C5.30684 2.62856 2.70268 5.50294 2.4411 8.37277L2.93904 8.41816L3.43697 8.46355C3.65755 6.04358 5.88701 3.62816 8.61493 3.62624L8.61458 3.12624ZM2.93904 8.41816L2.4411 8.37277C2.317 9.73432 2.37804 10.7618 2.41357 11.496C2.43169 11.8704 2.44127 12.1396 2.42492 12.3471C2.40851 12.5554 2.36995 12.6281 2.3501 12.6539L2.74639 12.9588L3.14269 13.2637C3.33711 13.011 3.39963 12.7075 3.42183 12.4257C3.44409 12.1431 3.42983 11.808 3.4124 11.4477C3.37682 10.7123 3.3199 9.74796 3.43697 8.46355L2.93904 8.41816ZM2.24118 17.7215V18.2215H14.988V17.7215V17.2215H2.24118V17.7215ZM1.01256 16.3332L0.517557 16.2627C0.362898 17.3485 1.23273 18.2215 2.24118 18.2215V17.7215V17.2215C1.79143 17.2215 1.44556 16.8391 1.50756 16.4037L1.01256 16.3332ZM16.2166 16.3332L15.7216 16.4037C15.7836 16.8391 15.4377 17.2215 14.988 17.2215V17.7215V18.2215C15.9964 18.2215 16.8663 17.3485 16.7116 16.2627L16.2166 16.3332Z" fill="#5EF1FA"/>
<ellipse cx="13.4602" cy="5.63635" rx="2.76894" ry="3.09091" fill="#FF0000"/>
</svg>
