<svg width="27" height="27" viewBox="0 0 27 27" fill="none" xmlns="http://www.w3.org/2000/svg">
<path d="M12.4453 18.2451V14.5537H8.75391C8.17136 14.5537 7.69922 14.0815 7.69922 13.499C7.69922 12.9166 8.17136 12.4443 8.75391 12.4443H12.4453V8.75288C12.4453 8.17053 12.9174 7.69819 13.5 7.69819C14.0826 7.69819 14.5547 8.17053 14.5547 8.75288V12.4443H18.2461C18.8286 12.4443 19.3008 12.9166 19.3008 13.499C19.3008 14.0815 18.8286 14.5537 18.2461 14.5537H14.5547V18.2451C14.5547 18.8276 14.0826 19.2998 13.5 19.2998C12.9174 19.2998 12.4453 18.8276 12.4453 18.2451ZM23.046 3.95405C20.4962 1.40426 17.1059 0 13.5 0C9.89408 0 6.50384 1.40426 3.95405 3.95405C1.40426 6.50384 0 9.89408 0 13.5C0 17.1059 1.40426 20.4962 3.95405 23.046C6.50384 25.5957 9.89408 27 13.5 27C15.9686 27 18.3841 26.3272 20.4852 25.0544C20.9835 24.7526 21.1428 24.1041 20.841 23.606C20.5392 23.1077 19.8905 22.9485 19.3924 23.2503C17.6209 24.3233 15.5832 24.8906 13.5 24.8906C7.21925 24.8906 2.10938 19.7807 2.10938 13.5C2.10938 7.21925 7.21925 2.10938 13.5 2.10938C19.7807 2.10938 24.8906 7.21925 24.8906 13.5C24.8906 15.7459 24.2228 17.932 22.9592 19.8222C22.6354 20.3062 22.7656 20.9613 23.2499 21.2851C23.734 21.6087 24.389 21.4785 24.7129 20.9945C26.209 18.7563 27 16.1647 27 13.5C27 9.89408 25.5957 6.50384 23.046 3.95405Z" fill="#111111"/>
</svg>
