<svg width="17" height="17" viewBox="0 0 17 17" fill="none" xmlns="http://www.w3.org/2000/svg">
<g clip-path="url(#clip0_1_16554)">
<path d="M7.83594 11.4876V9.16341H5.51172C5.14493 9.16341 4.84766 8.86614 4.84766 8.49935C4.84766 8.13269 5.14493 7.83529 5.51172 7.83529H7.83594V5.51107C7.83594 5.14441 8.13321 4.84701 8.5 4.84701C8.86679 4.84701 9.16406 5.14441 9.16406 5.51107V7.83529H11.4883C11.8551 7.83529 12.1523 8.13269 12.1523 8.49935C12.1523 8.86614 11.8551 9.16341 11.4883 9.16341H9.16406V11.4876C9.16406 11.8544 8.86679 12.1517 8.5 12.1517C8.13321 12.1517 7.83594 11.8544 7.83594 11.4876ZM14.5104 2.48959C12.905 0.884163 10.7704 0 8.5 0C6.22961 0 4.09501 0.884163 2.48959 2.48959C0.884163 4.09501 0 6.22961 0 8.5C0 10.7704 0.884163 12.905 2.48959 14.5104C4.09501 16.1158 6.22961 17 8.5 17C10.0543 17 11.5752 16.5764 12.8981 15.775C13.2119 15.585 13.3121 15.1767 13.1221 14.8631C12.9321 14.5493 12.5237 14.4491 12.2101 14.6391C11.0946 15.3147 9.81165 15.6719 8.5 15.6719C4.54546 15.6719 1.32812 12.4545 1.32812 8.5C1.32812 4.54546 4.54546 1.32812 8.5 1.32812C12.4545 1.32812 15.6719 4.54546 15.6719 8.5C15.6719 9.91412 15.2514 11.2905 14.4558 12.4806C14.2519 12.7854 14.3339 13.1979 14.6388 13.4017C14.9436 13.6055 15.3561 13.5235 15.5599 13.2187C16.502 11.8095 17 10.1778 17 8.5C17 6.22961 16.1158 4.09501 14.5104 2.48959Z" fill="white"/>
</g>
<defs>
<clipPath id="clip0_1_16554">
<rect width="17" height="17" fill="white"/>
</clipPath>
</defs>
</svg>
