<svg width="19" height="15" viewBox="0 0 19 15" fill="none" xmlns="http://www.w3.org/2000/svg">
<path d="M18.3679 2.35255C17.9886 1.95521 17.4648 1.72042 16.8688 1.72042H13.8707V1.6843C13.8707 1.23278 13.6901 0.799321 13.3831 0.510348C13.076 0.203313 12.6606 0.0227051 12.2091 0.0227051H6.79087C6.32129 0.0227051 5.90589 0.203313 5.59886 0.510348C5.29183 0.817382 5.11122 1.23278 5.11122 1.6843V1.72042H2.13118C1.53517 1.72042 1.01141 1.95521 0.632129 2.35255C0.252852 2.73183 0 3.27366 0 3.8516V12.8459C0 13.4419 0.234791 13.9657 0.632129 14.3449C1.01141 14.7242 1.55323 14.9771 2.13118 14.9771H16.8688C17.4648 14.9771 17.9886 14.7423 18.3679 14.3449C18.7471 13.9657 19 13.4238 19 12.8459V3.8516C19 3.2556 18.7652 2.73183 18.3679 2.35255ZM18.0608 12.8459H18.0428C18.0428 13.171 17.9164 13.46 17.6996 13.6767C17.4829 13.8934 17.1939 14.0199 16.8688 14.0199H2.13118C1.80608 14.0199 1.51711 13.8934 1.30038 13.6767C1.08365 13.46 0.957224 13.171 0.957224 12.8459V3.8516C0.957224 3.52651 1.08365 3.23753 1.30038 3.0208C1.51711 2.80407 1.80608 2.67765 2.13118 2.67765H5.61692C5.88783 2.67765 6.10456 2.46092 6.10456 2.19001V1.66624C6.10456 1.46757 6.17681 1.28696 6.30323 1.16054C6.42966 1.03411 6.61027 0.961869 6.80894 0.961869H12.2091C12.4078 0.961869 12.5884 1.03411 12.7148 1.16054C12.8413 1.28696 12.9135 1.46757 12.9135 1.66624V2.19001C12.9135 2.46092 13.1302 2.67765 13.4011 2.67765H16.8869C17.212 2.67765 17.501 2.80407 17.7177 3.0208C17.9344 3.23753 18.0608 3.52651 18.0608 3.8516V12.8459Z" fill="white"/>
<path d="M9.49961 3.90576C8.27147 3.90576 7.1517 4.41147 6.35702 5.20614C5.54428 6.01888 5.05664 7.12059 5.05664 8.34873C5.05664 9.57686 5.56234 10.6966 6.35702 11.4913C7.16976 12.3041 8.27147 12.7917 9.49961 12.7917C10.7277 12.7917 11.8475 12.286 12.6422 11.4913C13.4549 10.6786 13.9426 9.57686 13.9426 8.34873C13.9426 7.12059 13.4369 6.00082 12.6422 5.20614C11.8475 4.41147 10.7277 3.90576 9.49961 3.90576ZM11.9559 10.8231C11.3238 11.4371 10.4568 11.8345 9.49961 11.8345C8.54238 11.8345 7.67546 11.4371 7.04333 10.8231C6.4112 10.1909 6.03193 9.32401 6.03193 8.36679C6.03193 7.40956 6.42926 6.54264 7.04333 5.91051C7.67546 5.27839 8.54238 4.89911 9.49961 4.89911C10.4568 4.89911 11.3238 5.29645 11.9559 5.91051C12.588 6.54264 12.9673 7.40956 12.9673 8.36679C12.9853 9.32401 12.588 10.1909 11.9559 10.8231Z" fill="white"/>
<path d="M15.9299 5.65766C16.4187 5.65766 16.8149 5.26144 16.8149 4.77268C16.8149 4.28392 16.4187 3.8877 15.9299 3.8877C15.4411 3.8877 15.0449 4.28392 15.0449 4.77268C15.0449 5.26144 15.4411 5.65766 15.9299 5.65766Z" fill="white"/>
</svg>
