<svg width="16" height="16" viewBox="0 0 16 16" fill="none" xmlns="http://www.w3.org/2000/svg">
<path d="M8 16C5.86312 16 3.85416 15.1678 2.34313 13.6569C0.832156 12.1458 0 10.1369 0 8C0 5.86312 0.832156 3.85416 2.34313 2.34313C3.85416 0.832156 5.86312 0 8 0C10.1369 0 12.1458 0.832156 13.6569 2.34313C15.1678 3.85416 16 5.86312 16 8C16 10.1369 15.1678 12.1458 13.6569 13.6569C12.1458 15.1678 10.1369 16 8 16ZM8 1.25C6.197 1.25 4.50194 1.95212 3.22703 3.22703C1.95212 4.50194 1.25 6.197 1.25 8C1.25 9.803 1.95212 11.4981 3.22703 12.773C4.50194 14.0479 6.197 14.75 8 14.75C9.80297 14.75 11.4981 14.0479 12.773 12.773C14.0479 11.4981 14.75 9.803 14.75 8C14.75 6.197 14.0479 4.50194 12.773 3.22703C11.4981 1.95212 9.80297 1.25 8 1.25ZM10.6517 11.5355L8 8.88387L5.34834 11.5355L4.46447 10.6517L7.11613 8L4.46447 5.34834L5.34834 4.46447L8 7.11613L10.6517 4.46447L11.5356 5.34834L8.88387 8L11.5356 10.6517L10.6517 11.5355Z" fill="white"/>
</svg>
