<svg width="22" height="22" viewBox="0 0 22 22" fill="none" xmlns="http://www.w3.org/2000/svg">
<path d="M8.88756 12.144C8.82156 12.144 7.36956 12.144 6.70956 12.144C6.35756 12.144 6.24756 12.012 6.24756 11.682C6.24756 10.802 6.24756 9.89998 6.24756 9.01998C6.24756 8.66798 6.37956 8.55798 6.70956 8.55798H8.88756C8.88756 8.49198 8.88756 7.21598 8.88756 6.62198C8.88756 5.74198 9.04156 4.90598 9.48156 4.13598C9.94356 3.34398 10.6036 2.81598 11.4396 2.50798C11.9896 2.30998 12.5396 2.22198 13.1336 2.22198H15.2896C15.5976 2.22198 15.7296 2.35398 15.7296 2.66198V5.16998C15.7296 5.47798 15.5976 5.60998 15.2896 5.60998C14.6956 5.60998 14.1016 5.60998 13.5076 5.63198C12.9136 5.63198 12.6056 5.91798 12.6056 6.53398C12.5836 7.19398 12.6056 7.83198 12.6056 8.51398H15.1576C15.5096 8.51398 15.6416 8.64598 15.6416 8.99798V11.66C15.6416 12.012 15.5316 12.122 15.1576 12.122C14.3656 12.122 12.6716 12.122 12.6056 12.122V19.294C12.6056 19.668 12.4956 19.8 12.0996 19.8C11.1756 19.8 10.2736 19.8 9.34956 19.8C9.01956 19.8 8.88756 19.668 8.88756 19.338C8.88756 17.028 8.88756 12.21 8.88756 12.144Z" fill="black"/>
</svg>
