<svg width="23" height="25" viewBox="0 0 23 25" fill="none" xmlns="http://www.w3.org/2000/svg">
<path d="M18.3853 3.68952C18.2883 3.68952 18.1806 3.6571 18.0826 3.59824C15.841 2.42498 13.8885 1.92744 11.541 1.92744C9.21571 1.92744 7.00934 2.48783 4.98354 3.593C4.90174 3.64188 4.79974 3.66395 4.67155 3.66395C4.4289 3.66395 4.20594 3.52991 4.07476 3.30545C3.91415 3.00145 4.02887 2.61227 4.34136 2.42847C6.55745 1.23339 8.97405 0.625 11.5156 0.625C14.0644 0.625 16.2727 1.18314 18.6759 2.43483C18.8794 2.52586 18.9691 2.70529 19.0068 2.81291C19.0425 2.98661 19.021 3.17515 18.9484 3.31979C18.8559 3.54075 18.622 3.68952 18.3853 3.68952Z" fill="black"/>
<path d="M8.88485 24.1452C8.71726 24.1452 8.53845 24.0681 8.44044 23.9535C7.42541 22.9377 6.87276 22.2804 6.04304 20.8024C5.22903 19.3472 4.79883 17.5624 4.79883 15.6411C4.79883 12.0926 7.82319 9.20569 11.5406 9.20569C15.2583 9.20569 18.2826 12.0926 18.2826 15.6411C18.2826 16.0134 17.9911 16.3051 17.6188 16.3051C17.2464 16.3051 16.9546 16.0134 16.9546 15.6411C16.9546 12.8108 14.5146 10.5081 11.5152 10.5081C10.0228 10.5081 8.58159 11.0991 7.56083 12.1293C6.60716 13.0919 6.08868 14.3491 6.10115 15.669C6.10115 17.3661 6.47449 18.9283 7.18126 20.1844C7.95337 21.5428 8.46138 22.0912 9.36568 23.0208C9.6006 23.274 9.60359 23.6755 9.37016 23.9365C9.21055 24.073 9.04296 24.1452 8.88485 24.1452Z" fill="black"/>
<path d="M14.9377 24.375C14.8776 24.375 14.8257 24.375 14.7885 24.3625C12.876 23.8337 11.6325 23.1355 10.3409 21.8687C8.70166 20.2545 7.76145 17.9938 7.76145 15.6666C7.76145 13.7234 9.42265 12.1425 11.4644 12.1425C13.5062 12.1425 15.1674 13.7234 15.1674 15.6666C15.1674 16.8918 16.2442 17.8884 17.568 17.8884C18.8915 17.8884 19.9684 16.8918 19.9684 15.6666C19.9684 11.245 16.1535 7.64783 11.4644 7.64783C8.14103 7.64783 5.09372 9.49856 3.70112 12.3627C3.24324 13.3324 3.01155 14.4346 3.01155 15.6411C3.01155 16.5709 3.09261 18.0234 3.79389 19.8934C3.8515 20.0468 3.84402 20.2322 3.77394 20.3893C3.69887 20.5396 3.56645 20.6604 3.41582 20.7107C3.34549 20.7275 3.26169 20.7486 3.19037 20.7486C2.91504 20.7486 2.67862 20.5846 2.58784 20.3307C2.01199 18.8531 1.70898 17.2338 1.70898 15.6411C1.70898 14.2224 1.98406 12.9277 2.52699 11.793C4.11486 8.46808 7.62304 6.31982 11.4644 6.31982C16.8717 6.31982 21.271 10.5014 21.271 15.6411C21.271 17.5843 19.6098 19.1653 17.568 19.1653C15.5262 19.1653 13.865 17.5843 13.865 15.6411C13.865 14.4161 12.7882 13.4194 11.4644 13.4194C10.1409 13.4194 9.06402 14.4161 9.06402 15.6411C9.06402 17.6361 9.84337 19.5141 11.2584 20.9291C12.3921 22.0367 13.4688 22.6417 15.0998 23.089C15.2709 23.134 15.4105 23.2393 15.4956 23.3859C15.5809 23.5328 15.6033 23.7067 15.5589 23.8758C15.4851 24.171 15.23 24.375 14.9377 24.375Z" fill="black"/>
<path d="M17.287 21.9233C15.833 21.9233 14.6275 21.5789 13.6015 20.8705C11.8311 19.6655 10.7749 17.711 10.7749 15.6411C10.7749 15.2688 11.0667 14.9772 11.439 14.9772C11.8114 14.9772 12.1029 15.2688 12.1029 15.6411C12.1029 17.3026 12.9478 18.8526 14.3629 19.7871C15.1904 20.3476 16.1642 20.6209 17.3381 20.6209C17.5913 20.6209 18.0611 20.5933 18.5529 20.5156L18.5921 20.5094L18.6277 20.4916C18.635 20.4916 18.6507 20.4932 18.6661 20.4932C18.9679 20.4932 19.237 20.7228 19.2539 20.9944C19.2746 21.1816 19.2345 21.3545 19.1392 21.507C19.0519 21.6465 18.9105 21.7367 18.7183 21.7751C18.2736 21.8738 17.7938 21.9233 17.287 21.9233Z" fill="black"/>
<path d="M1.47912 9.86966C1.24494 9.86966 1.01874 9.74709 0.855889 9.53236C0.753639 9.31265 0.776832 9.06675 0.919483 8.87073C2.1198 7.18522 3.61814 5.88028 5.3741 4.98995C7.22633 4.03865 9.34965 3.53625 11.5154 3.53625C13.7215 3.53625 15.8356 4.02968 17.6287 4.96315C19.4063 5.86444 20.9044 7.1609 22.0843 8.81748C22.1826 8.9756 22.2277 9.16202 22.196 9.30342C22.1544 9.49109 22.0539 9.65045 21.9269 9.72963C21.8072 9.81455 21.6706 9.86006 21.5481 9.86006C21.5152 9.86006 21.4835 9.8567 21.4538 9.85021C21.2663 9.80844 21.1069 9.70781 21.0276 9.58099C19.9961 8.1258 18.6225 6.93271 17.0466 6.11857C15.3901 5.26453 13.4776 4.81314 11.5154 4.81314C9.52721 4.81314 7.61413 5.26478 5.98287 6.1192C4.41744 6.91475 3.07198 8.08402 1.98688 9.59284L1.97815 9.60493L1.97092 9.6179C1.88188 9.77789 1.70282 9.86966 1.47912 9.86966Z" fill="black"/>
</svg>
