<svg width="21" height="21" viewBox="0 0 21 21" fill="none" xmlns="http://www.w3.org/2000/svg">
<g clip-path="url(#clip0_1_15399)">
<path d="M20.9995 10.5C20.9995 9.84035 20.9376 9.18004 20.8151 8.53896C20.7598 8.24878 20.5056 8.03906 20.2107 8.03906H10.5405C10.2005 8.03906 9.92529 8.31424 9.92529 8.6543V12.3457C9.92529 12.6858 10.2005 12.9609 10.5405 12.9609H15.5021C15.1929 13.5868 14.7669 14.1298 14.2666 14.5866L17.7439 18.0639C19.7447 16.1577 20.9995 13.4753 20.9995 10.5Z" fill="black"/>
<path d="M10.4997 4.92188C11.7067 4.92188 12.8549 5.30521 13.8198 6.03098C14.0637 6.21424 14.408 6.19201 14.6242 5.97389L17.2498 3.34831C17.3718 3.22633 17.4373 3.0587 17.4295 2.88627C17.4217 2.71384 17.3423 2.55281 17.2101 2.44166C15.3314 0.866988 12.948 0 10.4997 0C6.89648 0 3.7133 1.83151 1.83154 4.61229L5.44289 8.22363C6.30446 6.28294 8.24294 4.92188 10.4997 4.92188Z" fill="black"/>
<path d="M10.4997 21C12.8483 21 15.0111 20.2125 16.7587 18.9005L13.2162 15.358C12.4064 15.8139 11.481 16.0781 10.4997 16.0781C8.24294 16.0781 6.30446 14.7171 5.44289 12.7764L1.83154 16.3877C3.7133 19.1685 6.89648 21 10.4997 21Z" fill="black"/>
<path d="M5.01096 11.3861C4.96384 11.0958 4.92139 10.8034 4.92139 10.5C4.92139 10.1966 4.96384 9.9042 5.01096 9.61385L1.15041 5.7533C0.420004 7.17982 -0.000488281 8.7903 -0.000488281 10.5C-0.000488281 12.2097 0.420004 13.8202 1.15045 15.2466L5.01096 11.3861Z" fill="black"/>
</g>
<defs>
<clipPath id="clip0_1_15399">
<rect width="21" height="21" fill="white" transform="translate(-0.000488281)"/>
</clipPath>
</defs>
</svg>
