<svg width="18" height="18" viewBox="0 0 18 18" fill="none" xmlns="http://www.w3.org/2000/svg">
<g clip-path="url(#clip0_922_6284)">
<path d="M12.217 16.7969H5.69979C4.96278 16.8243 4.24474 16.5597 3.70168 16.0607C3.15862 15.5616 2.83443 14.8685 2.79953 14.1318V10.638C2.79953 10.4895 2.85852 10.3471 2.96352 10.2421C3.06852 10.1371 3.21093 10.0781 3.35943 10.0781C3.50792 10.0781 3.65033 10.1371 3.75533 10.2421C3.86034 10.3471 3.91932 10.4895 3.91932 10.638V14.1318C3.95374 14.5715 4.15976 14.9801 4.4929 15.2693C4.82604 15.5584 5.25955 15.7049 5.69979 15.6771H12.217C12.6572 15.7049 13.0907 15.5584 13.4239 15.2693C13.757 14.9801 13.963 14.5715 13.9974 14.1318V10.638C13.9974 10.4895 14.0564 10.3471 14.1614 10.2421C14.2664 10.1371 14.4089 10.0781 14.5573 10.0781C14.7058 10.0781 14.8483 10.1371 14.9533 10.2421C15.0583 10.3471 15.1172 10.4895 15.1172 10.638V14.1318C15.0823 14.8685 14.7582 15.5616 14.2151 16.0607C13.672 16.5597 12.954 16.8243 12.217 16.7969ZM16.6346 9.35586C16.687 9.30381 16.7287 9.24189 16.7571 9.17366C16.7855 9.10543 16.8002 9.03225 16.8002 8.95833C16.8002 8.88442 16.7855 8.81124 16.7571 8.74301C16.7287 8.67478 16.687 8.61286 16.6346 8.56081L9.35591 1.28216C9.30386 1.22968 9.24194 1.18803 9.17371 1.15961C9.10548 1.13118 9.0323 1.11655 8.95839 1.11655C8.88447 1.11655 8.81129 1.13118 8.74306 1.15961C8.67484 1.18803 8.61291 1.22968 8.56086 1.28216L1.28221 8.56081C1.17678 8.66624 1.11755 8.80923 1.11755 8.95833C1.11755 9.10743 1.17678 9.25043 1.28221 9.35586C1.38764 9.46129 1.53064 9.52052 1.67974 9.52052C1.82884 9.52052 1.97184 9.46129 2.07727 9.35586L8.95839 2.46914L15.8395 9.35586C15.8916 9.40834 15.9535 9.44999 16.0217 9.47842C16.0899 9.50684 16.1631 9.52148 16.237 9.52148C16.3109 9.52148 16.3841 9.50684 16.4524 9.47842C16.5206 9.44999 16.5825 9.40834 16.6346 9.35586Z" fill="white"/>
</g>
<defs>
<clipPath id="clip0_922_6284">
<rect width="17.9167" height="17.9167" fill="white"/>
</clipPath>
</defs>
</svg>
