<svg width="830" height="619" viewBox="0 0 830 619" fill="none" xmlns="http://www.w3.org/2000/svg">
<path d="M275.547 579.65C393.306 558.65 497.933 518.785 576.901 464.827C655.869 410.87 705.832 345.106 720.809 275.41H554.453V0.0400391H275.547V275.41H0.176758V554.316H275.547V579.65Z" fill="#0B92D2"/>
<path d="M579.967 2.2854C679.218 68.3968 733.769 152.483 733.815 239.429C733.813 254.221 732.232 268.999 729.08 283.681H828.901C829.27 280.926 829.577 278.169 829.823 275.41C829.793 222.516 807.225 170.341 763.882 122.962C720.539 75.5831 657.595 34.2821 579.967 2.2854ZM828.901 283.681H729.08C714.103 353.377 664.14 419.14 585.172 473.098C506.204 527.056 401.577 566.921 283.818 587.921V615.028C432.32 603.819 568.652 564.348 668.491 503.658C768.33 442.968 825.181 365.005 828.901 283.681ZM283.818 615.028V587.921C221.676 599.031 156.923 604.696 91.7851 604.721C61.3272 604.639 30.9182 603.323 0.788574 600.784C64.1861 612.305 130.55 618.298 197.407 618.541C226.325 618.443 255.196 617.27 283.818 615.028Z" fill="#40C0B3"/>
</svg>
