<svg width="22" height="19" viewBox="0 0 22 19" fill="none" xmlns="http://www.w3.org/2000/svg">
<path d="M7.82528 10.2947C7.273 10.2947 6.82528 9.84696 6.82528 9.29468C6.82528 8.74239 7.273 8.29468 7.82528 8.29468V10.2947ZM20.5237 9.29468L21.1496 8.51481C21.3861 8.70461 21.5237 8.99146 21.5237 9.29468C21.5237 9.5979 21.3861 9.88475 21.1496 10.0746L20.5237 9.29468ZM16.0814 7.01149C15.6507 6.66579 15.5818 6.03639 15.9275 5.60568C16.2732 5.17497 16.9026 5.10605 17.3333 5.45174L16.0814 7.01149ZM17.3333 13.1376C16.9026 13.4833 16.2732 13.4144 15.9275 12.9837C15.5818 12.553 15.6507 11.9236 16.0814 11.5779L17.3333 13.1376ZM13.0111 17.5713L13.0111 16.5713L13.0111 17.5713ZM13.8792 16.7078L14.8792 16.7078L14.8792 16.7078L13.8792 16.7078ZM1.47608 16.7078L2.47608 16.7078L2.47608 16.7078L1.47608 16.7078ZM2.34419 1.46971L2.34419 0.469709H2.34419V1.46971ZM1.47607 2.3332L0.476074 2.3332L0.476074 2.3332L1.47607 2.3332ZM13.0111 1.46971L13.0111 2.46971H13.0111V1.46971ZM13.8792 2.3332L14.8792 2.3332V2.3332H13.8792ZM12.8792 13.0656C12.8792 12.5133 13.3269 12.0656 13.8792 12.0656C14.4315 12.0656 14.8792 12.5133 14.8792 13.0656L12.8792 13.0656ZM14.8792 5.84551C14.8792 6.3978 14.4315 6.84551 13.8792 6.84551C13.3269 6.84551 12.8792 6.3978 12.8792 5.84551H14.8792ZM7.82528 9.29468V8.29468H20.5237V9.29468V10.2947H7.82528V9.29468ZM20.5237 9.29468L19.8978 10.0746L16.0814 7.01149L16.7074 6.23162L17.3333 5.45174L21.1496 8.51481L20.5237 9.29468ZM20.5237 9.29468L21.1496 10.0746L17.3333 13.1376L16.7074 12.3577L16.0814 11.5779L19.8978 8.51481L20.5237 9.29468ZM13.0111 17.5713L13.0111 16.5713C12.9433 16.5713 12.8792 16.6274 12.8792 16.7078L13.8792 16.7078L14.8792 16.7078C14.8792 17.742 14.0377 18.5713 13.0111 18.5713L13.0111 17.5713ZM2.3442 17.5713L2.3442 16.5713L13.0111 16.5713L13.0111 17.5713L13.0111 18.5713L2.3442 18.5713L2.3442 17.5713ZM1.47608 16.7078L2.47608 16.7078C2.47608 16.6274 2.41199 16.5713 2.3442 16.5713L2.3442 17.5713L2.3442 18.5713C1.31751 18.5713 0.476076 17.742 0.476076 16.7078L1.47608 16.7078ZM2.34419 1.46971L2.34419 2.46971C2.41199 2.46971 2.47607 2.41362 2.47607 2.3332L1.47607 2.3332L0.476074 2.3332C0.476074 1.299 1.3175 0.469709 2.34419 0.469709L2.34419 1.46971ZM13.0111 1.46971V2.46971H2.34419V1.46971V0.469709H13.0111V1.46971ZM13.8792 2.3332L12.8792 2.3332C12.8792 2.41362 12.9433 2.46971 13.0111 2.46971L13.0111 1.46971L13.0111 0.469709C14.0377 0.469709 14.8792 1.299 14.8792 2.3332L13.8792 2.3332ZM1.47607 2.3332L2.47607 2.3332L2.47608 16.7078L1.47608 16.7078L0.476076 16.7078L0.476074 2.3332L1.47607 2.3332ZM13.8792 16.7078L12.8792 16.7078L12.8792 13.0656L13.8792 13.0656L14.8792 13.0656L14.8792 16.7078L13.8792 16.7078ZM13.8792 5.84551H12.8792V2.3332H13.8792H14.8792V5.84551H13.8792Z" fill="white"/>
</svg>
