<svg width="1930" height="624" viewBox="0 0 1930 624" fill="none" xmlns="http://www.w3.org/2000/svg">
<path d="M1814.08 416.753H1806.96V409.633H1801.52V416.753H1794.41V422.198H1801.52V429.317H1806.96V422.198H1814.08V416.753Z" fill="#00ADFF"/>
<path d="M1680.1 337.531H1673.23V330.66H1667.98V337.531H1661.11V342.787H1667.98V349.658H1673.23V342.787H1680.1V337.531Z" fill="#5BC7B8"/>
<path d="M62.5991 46.1485H61.1343V44.6829H60.0161V46.1485H58.5474V47.2675H60.0161V48.7332H61.1343V47.2675H62.5991V46.1485Z" fill="#00ADFF"/>
<path d="M1464.25 240.962H1455.85V232.558H1449.43V240.962H1441.02V247.392H1449.43V255.796H1455.85V247.392H1464.25V240.962Z" fill="#41BFB3"/>
<path d="M1810.71 327.279H1806.21V322.784H1802.78V327.279H1798.28V330.719H1802.78V335.214H1806.21V330.719H1810.71V327.279Z" fill="#41BFB3"/>
<path d="M1740.6 291.985H1731.72V283.108H1724.94V291.985H1716.07V298.773H1724.94V307.654H1731.72V298.773H1740.6V291.985Z" fill="#5BC7B8"/>
<path d="M1727.22 421.93H1725.21V419.917H1723.67V421.93H1721.65V423.47H1723.67V425.488H1725.21V423.47H1727.22V421.93Z" fill="#00ADFF"/>
<path d="M1411.14 298.773H1400.94V288.565H1393.14V298.773H1382.94V306.579H1393.14V316.787H1400.94V306.579H1411.14V298.773Z" fill="#00ADFF"/>
<path d="M30.6343 191.393H24.6375V185.392H20.0542V191.393H14.0574V195.979H20.0542V201.98H24.6375V195.979H30.6343V191.393Z" fill="#5BC7B8"/>
<path d="M1379.95 337.689H1367.7V325.427H1358.32V337.689H1346.07V347.07H1358.32V359.331H1367.7V347.07H1379.95V337.689Z" fill="#5BC7B8"/>
<path d="M1870.56 157.871H1864.41V151.713H1859.7V157.871H1853.54V162.583H1859.7V168.742H1864.41V162.583H1870.56V157.871Z" fill="#41BFB3"/>
<path d="M1198.23 422.241H1195.47V419.475H1193.36V422.241H1190.6V424.353H1193.36V427.115H1195.47V424.353H1198.23V422.241Z" fill="#5BC7B8"/>
<path d="M236.795 501.995H232.192V497.389H228.668V501.995H224.061V505.521H228.668V510.127H232.192V505.521H236.795V501.995Z" fill="#75B8F9"/>
<path d="M1433.31 68.8507H1431.34V66.8767H1429.83V68.8507H1427.86V70.3597H1429.83V72.3336H1431.34V70.3597H1433.31V68.8507Z" fill="#75B8F9"/>
<path d="M1536.2 517.546H1533.09V514.441H1530.72V517.546H1527.62V519.921H1530.72V523.026H1533.09V519.921H1536.2V517.546Z" fill="#00ADFF"/>
<path d="M1104.63 358.906H1098.47V352.743H1093.76V358.906H1087.6V363.622H1093.76V369.78H1098.47V363.622H1104.63V358.906Z" fill="#00ADFF"/>
<path d="M1814.62 568.305H1812.3V565.992H1810.54V568.305H1808.23V570.074H1810.54V572.383H1812.3V570.074H1814.62V568.305Z" fill="#00ADFF"/>
<path d="M1016.77 331.456H1001.84V316.519H990.425V331.456H975.502V342.878H990.425V357.814H1001.84V342.878H1016.77V331.456Z" fill="#5BC7B8"/>
<path d="M932.075 399.236H928.661V395.823H926.051V399.236H922.637V401.848H926.051V405.264H928.661V401.848H932.075V399.236Z" fill="#5BC7B8"/>
<path d="M1005.67 596.901H1002.22V593.454H999.584V596.901H996.135V599.541H999.584V602.993H1002.22V599.541H1005.67V596.901Z" fill="#00ADFF"/>
<path d="M1842.82 253.514H1837.59V248.29H1833.6V253.514H1828.38V257.514H1833.6V262.738H1837.59V257.514H1842.82V253.514Z" fill="#00ADFF"/>
<path d="M807.913 621.838H806.885V620.813H806.106V621.838H805.082V622.622H806.106V623.646H806.885V622.622H807.913V621.838Z" fill="#5BC7B8"/>
<path d="M231.038 431.13H225.321V425.405H220.947V431.13H215.229V435.507H220.947V441.228H225.321V435.507H231.038V431.13Z" fill="#41BFB3"/>
<path d="M259.751 148.324H252.12V140.685H246.281V148.324H238.65V154.164H246.281V161.799H252.12V154.164H259.751V148.324Z" fill="#00ADFF"/>
<path d="M1332.62 495.454H1329.49V492.33H1327.1V495.454H1323.98V497.842H1327.1V500.966H1329.49V497.842H1332.62V495.454Z" fill="#00ADFF"/>
<path d="M1159.4 76.9907H1156.3V73.8899H1153.93V76.9907H1150.83V79.3625H1153.93V82.4633H1156.3V79.3625H1159.4V76.9907Z" fill="#00ADFF"/>
<path d="M939.387 488.323H935.052V483.985H931.732V488.323H927.393V491.644H931.732V495.986H935.052V491.644H939.387V488.323Z" fill="#41BFB3"/>
<path d="M1466.2 488.067H1461.05V482.909H1457.1V488.067H1451.95V492.011H1457.1V497.164H1461.05V492.011H1466.2V488.067Z" fill="#00ADFF"/>
<path d="M1235.37 185.435H1228.68V178.741H1223.56V185.435H1216.87V190.553H1223.56V197.251H1228.68V190.553H1235.37V185.435Z" fill="#00ADFF"/>
<path d="M231.346 285.712H207.74V262.088H189.683V285.712H166.077V303.777H189.683V327.397H207.74V303.777H231.346V285.712Z" fill="#75B8F9"/>
<path d="M1907.35 435.814H1905.24V433.707H1903.63V435.814H1901.52V437.43H1903.63V439.538H1905.24V437.43H1907.35V435.814Z" fill="#41BFB3"/>
<path d="M296.937 367.873H287.101V358.027H279.576V367.873H269.736V375.402H279.576V385.245H287.101V375.402H296.937V367.873Z" fill="#41BFB3"/>
<path d="M1669.11 460.613H1663.74V455.243H1659.63V460.613H1654.26V464.726H1659.63V470.096H1663.74V464.726H1669.11V460.613Z" fill="#75B8F9"/>
<path d="M1276.64 416.8H1272.36V412.525H1269.1V416.8H1264.82V420.07H1269.1V424.345H1272.36V420.07H1276.64V416.8Z" fill="#00ADFF"/>
<path d="M1594.05 209.65H1590.88V206.479H1588.46V209.65H1585.29V212.074H1588.46V215.241H1590.88V212.074H1594.05V209.65Z" fill="#75B8F9"/>
<path d="M1404.83 202.665H1399.94V197.775H1396.2V202.665H1391.32V206.404H1396.2V211.294H1399.94V206.404H1404.83V202.665Z" fill="#00ADFF"/>
<path d="M1585.75 587.666H1581.38V583.292H1578.04V587.666H1573.67V591.007H1578.04V595.376H1581.38V591.007H1585.75V587.666Z" fill="#00ADFF"/>
<path d="M838.665 249.772H833.846V244.949H830.16V249.772H825.341V253.459H830.16V258.282H833.846V253.459H838.665V249.772Z" fill="#41BFB3"/>
<path d="M649.4 485.719H647.656V483.973H646.321V485.719H644.577V487.054H646.321V488.8H647.656V487.054H649.4V485.719Z" fill="#00ADFF"/>
<path d="M718.098 448.789H710.672V441.358H704.99V448.789H697.564V454.474H704.99V461.905H710.672V454.474H718.098V448.789Z" fill="#00ADFF"/>
<path d="M695.898 355.584H686.106V345.789H678.617V355.584H668.828V363.078H678.617V372.877H686.106V363.078H695.898V355.584Z" fill="#5BC7B8"/>
<path d="M1489.68 378.212H1482.68V371.214H1477.34V378.212H1470.34V383.562H1477.34V390.56H1482.68V383.562H1489.68V378.212Z" fill="#5BC7B8"/>
<path d="M1898.76 333.264H1880.75V315.239H1866.96V333.264H1848.95V347.054H1866.96V365.08H1880.75V347.054H1898.76V333.264Z" fill="#5BC7B8"/>
<path d="M1631.97 15.247H1630.41V13.6907H1629.23V15.247H1627.67V16.4369H1629.23V17.9932H1630.41V16.4369H1631.97V15.247Z" fill="#75B8F9"/>
<path d="M59.3979 317.512H51.078V309.187H44.711V317.512H36.391V323.883H44.711V332.212H51.078V323.883H59.3979V317.512Z" fill="#41BFB3"/>
<path d="M1336.31 437.355H1332.4V433.439H1329.4V437.355H1325.48V440.353H1329.4V444.27H1332.4V440.353H1336.31V437.355Z" fill="#75B8F9"/>
<path d="M1324.26 300.558H1311.46V287.749H1301.67V300.558H1288.87V310.353H1301.67V323.162H1311.46V310.353H1324.26V300.558Z" fill="#00ADFF"/>
<path d="M91.1384 463.962H87.5474V460.368H84.799V463.962H81.208V466.712H84.799V470.305H87.5474V466.712H91.1384V463.962Z" fill="#75B8F9"/>
<path d="M1791.95 163.856H1783.25V155.148H1776.59V163.856H1767.89V170.514H1776.59V179.218H1783.25V170.514H1791.95V163.856Z" fill="#75B8F9"/>
<path d="M627.996 170.924H625.236V168.162H623.121V170.924H620.361V173.04H623.121V175.802H625.236V173.04H627.996V170.924Z" fill="#5BC7B8"/>
<path d="M1559.7 432.879H1549.08V422.253H1540.96V432.879H1530.34V441.007H1540.96V451.633H1549.08V441.007H1559.7V432.879Z" fill="#41BFB3"/>
<path d="M805.566 357.038H799.282V350.75H794.474V357.038H788.19V361.849H794.474V368.137H799.282V361.849H805.566V357.038Z" fill="#75B8F9"/>
<path d="M1537.09 235.529H1529.42V227.861H1523.56V235.529H1515.9V241.395H1523.56V249.066H1529.42V241.395H1537.09V235.529Z" fill="#5BC7B8"/>
<path d="M565.22 220.848H558.558V214.182H553.463V220.848H546.8V225.946H553.463V232.617H558.558V225.946H565.22V220.848Z" fill="#41BFB3"/>
<path d="M1650.03 257.679H1641.21V248.85H1634.46V257.679H1625.63V264.432H1634.46V273.262H1641.21V264.432H1650.03V257.679Z" fill="#41BFB3"/>
<path d="M1920.35 208.544H1914.42V202.61H1909.88V208.544H1903.95V213.082H1909.88V219.02H1914.42V213.082H1920.35V208.544Z" fill="#75B8F9"/>
<path d="M1597.5 98.4204H1594.04V94.9453H1591.38V98.4204H1587.9V101.076H1591.38V104.551H1594.04V101.076H1597.5V98.4204Z" fill="#41BFB3"/>
<path d="M40.3482 436.61H33.8671V430.125H28.9097V436.61H22.4286V441.571H28.9097V448.052H33.8671V441.571H40.3482V436.61Z" fill="#00ADFF"/>
<path d="M897.763 275.594H892.759V270.587H888.931V275.594H883.927V279.424H888.931V284.432H892.759V279.424H897.763V275.594Z" fill="#75B8F9"/>
<path d="M122.265 404.306H119.839V401.875H117.98V404.306H115.551V406.166H117.98V408.593H119.839V406.166H122.265V404.306Z" fill="#00ADFF"/>
<path d="M432.151 338.055H422.256V328.154H414.688V338.055H404.793V345.632H414.688V355.533H422.256V345.632H432.151V338.055Z" fill="#75B8F9"/>
<path d="M1919.32 262.435H1908.94V252.053H1901.01V262.435H1890.64V270.374H1901.01V280.752H1908.94V270.374H1919.32V262.435Z" fill="#75B8F9"/>
<path d="M216.194 235.363H208.965V228.129H203.44V235.363H196.211V240.895H203.44V248.125H208.965V240.895H216.194V235.363Z" fill="#00ADFF"/>
<path d="M195.136 53.9496H192.726V51.5383H190.884V53.9496H188.474V55.7935H190.884V58.2048H192.726V55.7935H195.136V53.9496Z" fill="#5BC7B8"/>
<path d="M268.941 592.804H267.504V591.366H266.406V592.804H264.964V593.907H266.406V595.345H267.504V593.907H268.941V592.804Z" fill="#5BC7B8"/>
<path d="M174.925 458.966H169.578V453.615H165.487V458.966H160.135V463.059H165.487V468.414H169.578V463.059H174.925V458.966Z" fill="#41BFB3"/>
<path d="M172.7 324.856H164.864V317.02H158.875V324.856H151.04V330.853H158.875V338.69H164.864V330.853H172.7V324.856Z" fill="#41BFB3"/>
<path d="M316.845 137.379H311.695V132.226H307.757V137.379H302.603V141.323H307.757V146.477H311.695V141.323H316.845V137.379Z" fill="#75B8F9"/>
<path d="M1072.16 472.401H1065.12V465.361H1059.75V472.401H1052.71V477.783H1059.75V484.824H1065.12V477.783H1072.16V472.401Z" fill="#00ADFF"/>
<path d="M1136.16 393.507H1129.73V387.069H1124.81V393.507H1118.38V398.432H1124.81V404.87H1129.73V398.432H1136.16V393.507Z" fill="#41BFB3"/>
<path d="M655.224 600.912H653.57V599.258H652.306V600.912H650.652V602.177H652.306V603.832H653.57V602.177H655.224V600.912Z" fill="#00ADFF"/>
<path d="M1074.79 164.612H1070.23V160.046H1066.74V164.612H1062.18V168.103H1066.74V172.67H1070.23V168.103H1074.79V164.612Z" fill="#5BC7B8"/>
<path d="M1320.31 606.574H1318.79V605.057H1317.63V606.574H1316.12V607.736H1317.63V609.253H1318.79V607.736H1320.31V606.574Z" fill="#00ADFF"/>
<path d="M1501.91 591.365H1500.17V589.628H1498.84V591.365H1497.11V592.693H1498.84V594.431H1500.17V592.693H1501.91V591.365Z" fill="#41BFB3"/>
<path d="M644.333 111.619H638.123V105.41H633.374V111.619H627.169V116.371H633.374V122.584H638.123V116.371H644.333V111.619Z" fill="#41BFB3"/>
<path d="M381.038 72.4401H378.428V69.8279H376.431V72.4401H373.817V74.4416H376.431V77.0538H378.428V74.4416H381.038V72.4401Z" fill="#75B8F9"/>
<path d="M1270.15 343.674H1262.44V335.963H1256.55V343.674H1248.84V349.572H1256.55V357.286H1262.44V349.572H1270.15V343.674Z" fill="#00ADFF"/>
<path d="M104.979 323.335H98.5174V316.87H93.5758V323.335H87.1104V328.284H93.5758V334.75H98.5174V328.284H104.979V323.335Z" fill="#5BC7B8"/>
<path d="M364.694 336.881H351.357V323.536H341.159V336.881H327.823V347.086H341.159V360.43H351.357V347.086H364.694V336.881Z" fill="#00ADFF"/>
<path d="M518.667 234.114H507.768V223.208H499.432V234.114H488.529V242.455H499.432V253.365H507.768V242.455H518.667V234.114Z" fill="#00ADFF"/>
<path d="M299.669 323.556H289.097V312.977H281.009V323.556H270.437V331.645H281.009V342.224H289.097V331.645H299.669V323.556Z" fill="#41BFB3"/>
<path d="M1929.4 322.662H1923.61V316.866H1919.17V322.662H1913.38V327.098H1919.17V332.894H1923.61V327.098H1929.4V322.662Z" fill="#5BC7B8"/>
<path d="M90.276 596.649H87.5237V593.895H85.421V596.649H82.6687V598.753H85.421V601.507H87.5237V598.753H90.276V596.649Z" fill="#75B8F9"/>
<path d="M189.777 389.342H182.264V381.825H176.52V389.342H169.007V395.091H176.52V402.608H182.264V395.091H189.777V389.342Z" fill="#75B8F9"/>
<path d="M1346.65 226.013H1339.88V219.24H1334.71V226.013H1327.94V231.191H1334.71V237.963H1339.88V231.191H1346.65V226.013Z" fill="#00ADFF"/>
<path d="M388.858 142.021H381.672V134.83H376.18V142.021H368.994V147.517H376.18V154.707H381.672V147.517H388.858V142.021Z" fill="#00ADFF"/>
<path d="M697.285 187.559H693.221V183.489H690.11V187.559H686.047V190.668H690.11V194.738H693.221V190.668H697.285V187.559Z" fill="#75B8F9"/>
<path d="M957.696 231.502H951.577V225.379H946.9V231.502H940.785V236.183H946.9V242.301H951.577V236.183H957.696V231.502Z" fill="#00ADFF"/>
<path d="M101.97 370.804H88.3506V357.176H77.9358V370.804H64.3159V381.226H77.9358V394.85H88.3506V381.226H101.97V370.804Z" fill="#75B8F9"/>
<path d="M1678.59 175.566H1670.29V167.268H1663.95V175.566H1655.65V181.913H1663.95V190.211H1670.29V181.913H1678.59V175.566Z" fill="#00ADFF"/>
<path d="M1358.01 375.773H1349.16V366.916H1342.38V375.773H1333.53V382.549H1342.38V391.411H1349.16V382.549H1358.01V375.773Z" fill="#00ADFF"/>
<path d="M1802.97 96.5963H1799.2V92.8218H1796.31V96.5963H1792.54V99.4843H1796.31V103.255H1799.2V99.4843H1802.97V96.5963Z" fill="#00ADFF"/>
<path d="M1403.13 368.511H1398.42V363.799H1394.82V368.511H1390.11V372.116H1394.82V376.829H1398.42V372.116H1403.13V368.511Z" fill="#5BC7B8"/>
<path d="M1591.02 290.05H1580.59V279.609H1572.61V290.05H1562.18V298.033H1572.61V308.474H1580.59V298.033H1591.02V290.05Z" fill="#00ADFF"/>
<path d="M1792.87 275.988H1788.36V271.473H1784.91V275.988H1780.39V279.44H1784.91V283.955H1788.36V279.44H1792.87V275.988Z" fill="#00ADFF"/>
<path d="M1272.12 6.39H1269.58V3.84082H1267.63V6.39H1265.08V8.3403H1267.63V10.8895H1269.58V8.3403H1272.12V6.39Z" fill="#41BFB3"/>
<path d="M1026.27 173.95H1022.22V169.904H1019.13V173.95H1015.09V177.043H1019.13V181.089H1022.22V177.043H1026.27V173.95Z" fill="#00ADFF"/>
<path d="M796.876 211.14H791.348V205.608H787.119V211.14H781.587V215.371H787.119V220.907H791.348V215.371H796.876V211.14Z" fill="#75B8F9"/>
<path d="M550.446 611.897H546.422V607.87H543.339V611.897H539.315V614.982H543.339V619.009H546.422V614.982H550.446V611.897Z" fill="#41BFB3"/>
<path d="M517.674 555.662H515.639V553.625H514.083V555.662H512.048V557.218H514.083V559.255H515.639V557.218H517.674V555.662Z" fill="#00ADFF"/>
<path d="M980.294 281.37H975.148V276.225H971.214V281.37H966.072V285.306H971.214V290.456H975.148V285.306H980.294V281.37Z" fill="#00ADFF"/>
<path d="M1545.02 341.605H1534.92V331.499H1527.2V341.605H1517.1V349.335H1527.2V359.441H1534.92V349.335H1545.02V341.605Z" fill="#75B8F9"/>
<path d="M69.1197 263.207H58.0041V252.084H49.503V263.207H38.3873V271.718H49.503V282.84H58.0041V271.718H69.1197V263.207Z" fill="#75B8F9"/>
<path d="M317.243 10.2866H315.766V8.80518H314.636V10.2866H313.159V11.4174H314.636V12.8949H315.766V11.4174H317.243V10.2866Z" fill="#41BFB3"/>
<path d="M955.417 154.494H949.621V148.695H945.191V154.494H939.395V158.931H945.191V164.731H949.621V158.931H955.417V154.494Z" fill="#41BFB3"/>
<path d="M408.821 589.604H407.813V588.596H407.042V589.604H406.034V590.377H407.042V591.385H407.813V590.377H408.821V589.604Z" fill="#00ADFF"/>
<path d="M1616.5 346.294H1603.35V333.13H1593.29V346.294H1580.14V356.36H1593.29V369.524H1603.35V356.36H1616.5V346.294Z" fill="#41BFB3"/>
<path d="M377.873 498.89H372.352V493.366H368.127V498.89H362.603V503.117H368.127V508.641H372.352V503.117H377.873V498.89Z" fill="#00ADFF"/>
<path d="M1407.81 423.36H1402.45V417.994H1398.35V423.36H1392.99V427.462H1398.35V432.824H1402.45V427.462H1407.81V423.36Z" fill="#00ADFF"/>
<path d="M1234.7 104.717H1233.3V103.314H1232.22V104.717H1230.82V105.788H1232.22V107.191H1233.3V105.788H1234.7V104.717Z" fill="#75B8F9"/>
<path d="M268.437 290.96H258.546V281.063H250.982V290.96H241.091V298.529H250.982V308.426H258.546V298.529H268.437V290.96Z" fill="#5BC7B8"/>
<path d="M1034.71 438.963H1028.25V432.501H1023.31V438.963H1016.85V443.907H1023.31V450.373H1028.25V443.907H1034.71V438.963Z" fill="#75B8F9"/>
<path d="M490.135 408.577H482.312V400.752H476.33V408.577H468.51V414.562H476.33V422.387H482.312V414.562H490.135V408.577Z" fill="#41BFB3"/>
<path d="M1923.98 550.031H1922.14V548.191H1920.73V550.031H1918.89V551.442H1920.73V553.282H1922.14V551.442H1923.98V550.031Z" fill="#41BFB3"/>
<path d="M1861.01 377.42H1856.03V372.436H1852.21V377.42H1847.23V381.238H1852.21V386.222H1856.03V381.238H1861.01V377.42Z" fill="#00ADFF"/>
<path d="M399.376 389.263H390.78V380.662H384.204V389.263H375.605V395.843H384.204V404.448H390.78V395.843H399.376V389.263Z" fill="#41BFB3"/>
<path d="M1753.41 506.746H1750.51V503.85H1748.3V506.746H1745.41V508.961H1748.3V511.856H1750.51V508.961H1753.41V506.746Z" fill="#00ADFF"/>
<path d="M1364.6 254.484H1361.91V251.797H1359.85V254.484H1357.17V256.541H1359.85V259.232H1361.91V256.541H1364.6V254.484Z" fill="#00ADFF"/>
<path d="M603.052 389.854H597.169V383.968H592.668V389.854H586.79V394.354H592.668V400.24H597.169V394.354H603.052V389.854Z" fill="#00ADFF"/>
<path d="M1538.71 304.151H1531.23V296.669H1525.51V304.151H1518.03V309.876H1525.51V317.362H1531.23V309.876H1538.71V304.151Z" fill="#75B8F9"/>
<path d="M1289.4 270.697H1278.6V259.894H1270.34V270.697H1259.55V278.963H1270.34V289.767H1278.6V278.963H1289.4V270.697Z" fill="#00ADFF"/>
<path d="M309.277 518.373H306.844V515.938H304.985V518.373H302.552V520.233H304.985V522.664H306.844V520.233H309.277V518.373Z" fill="#75B8F9"/>
<path d="M941.001 17.8435H940.6V17.4417H940.289V17.8435H939.887V18.1548H940.289V18.5567H940.6V18.1548H941.001V17.8435Z" fill="#00ADFF"/>
<path d="M1260.9 310.129H1253.45V302.674H1247.75V310.129H1240.3V315.83H1247.75V323.28H1253.45V315.83H1260.9V310.129Z" fill="#00ADFF"/>
<path d="M901.866 446.011H895.889V440.03H891.318V446.011H885.337V450.589H891.318V456.57H895.889V450.589H901.866V446.011Z" fill="#00ADFF"/>
<path d="M775.039 273.94H770.853V269.755H767.656V273.94H763.47V277.143H767.656V281.331H770.853V277.143H775.039V273.94Z" fill="#5BC7B8"/>
<path d="M1461.75 407.387H1453.16V398.794H1446.59V407.387H1438V413.959H1446.59V422.552H1453.16V413.959H1461.75V407.387Z" fill="#75B8F9"/>
<path d="M1860.82 423.829H1852.23V415.236H1845.67V423.829H1837.08V430.401H1845.67V438.994H1852.23V430.401H1860.82V423.829Z" fill="#75B8F9"/>
<path d="M1178.34 594.297H1177.37V593.32H1176.62V594.297H1175.64V595.046H1176.62V596.023H1177.37V595.046H1178.34V594.297Z" fill="#5BC7B8"/>
<path d="M440.558 185.573H434.415V179.427H429.714V185.573H423.572V190.278H429.714V196.424H434.415V190.278H440.558V185.573Z" fill="#00ADFF"/>
<path d="M542.004 479.596H538.429V476.022H535.697V479.596H532.125V482.33H535.697V485.903H538.429V482.33H542.004V479.596Z" fill="#41BFB3"/>
<path d="M160.549 201.909H158.856V200.214H157.56V201.909H155.867V203.205H157.56V204.895H158.856V203.205H160.549V201.909Z" fill="#00ADFF"/>
<path d="M1134.57 301.705H1125.76V292.891H1119.02V301.705H1110.21V308.446H1119.02V317.264H1125.76V308.446H1134.57V301.705Z" fill="#00ADFF"/>
<path d="M424.839 488.181H417.563V480.904H411.999V488.181H404.723V493.752H411.999V501.029H417.563V493.752H424.839V488.181Z" fill="#5BC7B8"/>
<path d="M450.485 92.5224H448.646V90.6824H447.24V92.5224H445.401V93.9329H447.24V95.7729H448.646V93.9329H450.485V92.5224Z" fill="#00ADFF"/>
<path d="M861.463 325.258H843.292V307.075H829.392V325.258H811.225V339.162H829.392V357.345H843.292V339.162H861.463V325.258Z" fill="#75B8F9"/>
<path d="M1064.84 297.107H1059.55V291.815H1055.5V297.107H1050.22V301.153H1055.5V306.449H1059.55V301.153H1064.84V297.107Z" fill="#5BC7B8"/>
<path d="M1580.91 416.753H1573.8V409.633H1568.35V416.753H1561.24V422.198H1568.35V429.317H1573.8V422.198H1580.91V416.753Z" fill="#00ADFF"/>
<path d="M1446.93 337.531H1440.06V330.66H1434.81V337.531H1427.94V342.787H1434.81V349.658H1440.06V342.787H1446.93V337.531Z" fill="#5BC7B8"/>
<path d="M1678.02 46.1485H1676.55V44.6829H1675.43V46.1485H1673.97V47.2675H1675.43V48.7332H1676.55V47.2675H1678.02V46.1485Z" fill="#00ADFF"/>
<path d="M1282.56 142.481H1277.63V137.552H1273.87V142.481H1268.94V146.248H1273.87V151.177H1277.63V146.248H1282.56V142.481Z" fill="#00ADFF"/>
<path d="M1231.08 240.962H1222.68V232.558H1216.25V240.962H1207.86V247.392H1216.25V255.796H1222.68V247.392H1231.08V240.962Z" fill="#41BFB3"/>
<path d="M1692.71 42.9295H1688.26V38.4734H1684.85V42.9295H1680.4V46.3376H1684.85V50.7938H1688.26V46.3376H1692.71V42.9295Z" fill="#5BC7B8"/>
<path d="M1240.1 287.651H1228.63V276.174H1219.85V287.651H1208.38V296.429H1219.85V307.906H1228.63V296.429H1240.1V287.651Z" fill="#75B8F9"/>
<path d="M1494.05 421.93H1492.03V419.917H1490.49V421.93H1488.48V423.47H1490.49V425.488H1492.03V423.47H1494.05V421.93Z" fill="#00ADFF"/>
<path d="M1171.04 278.612H1160.84V268.404H1153.04V278.612H1142.83V286.421H1153.04V296.626H1160.84V286.421H1171.04V278.612Z" fill="#00ADFF"/>
<path d="M1646.05 191.393H1640.05V185.392H1635.47V191.393H1629.47V195.979H1635.47V201.98H1640.05V195.979H1646.05V191.393Z" fill="#5BC7B8"/>
<path d="M1146.78 337.689H1134.53V325.427H1125.16V337.689H1112.9V347.07H1125.16V359.331H1134.53V347.07H1146.78V337.689Z" fill="#5BC7B8"/>
<path d="M1637.39 157.871H1631.24V151.713H1626.53V157.871H1620.37V162.583H1626.53V168.742H1631.24V162.583H1637.39V157.871Z" fill="#41BFB3"/>
<path d="M826.927 383.952H821.785V378.807H817.851V383.952H812.709V387.888H817.851V393.034H821.785V387.888H826.927V383.952Z" fill="#00ADFF"/>
<path d="M49.1762 473.331H44.5693V468.721H41.0492V473.331H36.4423V476.853H41.0492V481.463H44.5693V476.853H49.1762V473.331Z" fill="#75B8F9"/>
<path d="M1303.03 517.546H1299.93V514.441H1297.55V517.546H1294.45V519.921H1297.55V523.026H1299.93V519.921H1303.03V517.546Z" fill="#00ADFF"/>
<path d="M871.453 358.906H865.295V352.743H860.585V358.906H854.427V363.622H860.585V369.78H865.295V363.622H871.453V358.906Z" fill="#00ADFF"/>
<path d="M1716.91 205.289H1710.51V198.886H1705.62V205.289H1699.21V210.186H1705.62V216.589H1710.51V210.186H1716.91V205.289Z" fill="#5BC7B8"/>
<path d="M1581.45 568.305H1579.14V565.992H1577.37V568.305H1575.06V570.074H1577.37V572.383H1579.14V570.074H1581.45V568.305Z" fill="#00ADFF"/>
<path d="M792.183 307.26H777.256V292.323H765.841V307.26H750.914V318.682H765.841V333.619H777.256V318.682H792.183V307.26Z" fill="#5BC7B8"/>
<path d="M772.495 596.901H769.05V593.454H766.412V596.901H762.966V599.541H766.412V602.993H769.05V599.541H772.495V596.901Z" fill="#00ADFF"/>
<path d="M1609.65 253.514H1604.42V248.29H1600.43V253.514H1595.21V257.514H1600.43V262.738H1604.42V257.514H1609.65V253.514Z" fill="#00ADFF"/>
<path d="M1073.14 345.947H1062.96V335.762H1055.17V345.947H1045V353.74H1055.17V363.925H1062.96V353.74H1073.14V345.947Z" fill="#00ADFF"/>
<path d="M646.195 276.103H633.032V262.927H622.96V276.103H609.797V286.177H622.96V299.353H633.032V286.177H646.195V276.103Z" fill="#00ADFF"/>
<path d="M81.1725 423.218H75.4512V417.493H71.0767V423.218H65.3594V427.596H71.0767V433.316H75.4512V427.596H81.1725V423.218Z" fill="#41BFB3"/>
<path d="M26.5787 148.324H18.9478V140.685H13.1124V148.324H5.48145V154.164H13.1124V161.799H18.9478V154.164H26.5787V148.324Z" fill="#00ADFF"/>
<path d="M1099.44 495.454H1096.32V492.33H1093.93V495.454H1090.81V497.842H1093.93V500.966H1096.32V497.842H1099.44V495.454Z" fill="#00ADFF"/>
<path d="M1452.56 97.7466H1449.03V94.2124H1446.32V97.7466H1442.79V100.449H1446.32V103.984H1449.03V100.449H1452.56V97.7466Z" fill="#75B8F9"/>
<path d="M669.265 324.198H660.922V315.849H654.539V324.198H646.195V330.585H654.539V338.934H660.922V330.585H669.265V324.198Z" fill="#00ADFF"/>
<path d="M1233.03 488.067H1227.88V482.909H1223.94V488.067H1218.78V492.011H1223.94V497.164H1227.88V492.011H1233.03V488.067Z" fill="#00ADFF"/>
<path d="M1002.2 185.435H995.508V178.741H990.39V185.435H983.7V190.553H990.39V197.251H995.508V190.553H1002.2V185.435Z" fill="#00ADFF"/>
<path d="M1865.73 293.644H1842.12V270.019H1824.07V293.644H1800.46V311.708H1824.07V335.329H1842.12V311.708H1865.73V293.644Z" fill="#75B8F9"/>
<path d="M96.0444 464.045H90.6973V458.694H86.6062V464.045H81.259V468.138H86.6062V473.489H90.6973V468.138H96.0444V464.045Z" fill="#00ADFF"/>
<path d="M56.4094 381.482H46.5695V371.636H39.0449V381.482H29.209V389.011H39.0449V398.853H46.5695V389.011H56.4094V381.482Z" fill="#41BFB3"/>
<path d="M1435.35 446.63H1429.97V441.256H1425.87V446.63H1420.5V450.739H1425.87V456.113H1429.97V450.739H1435.35V446.63Z" fill="#75B8F9"/>
<path d="M1043.46 416.8H1039.19V412.525H1035.92V416.8H1031.65V420.07H1035.92V424.345H1039.19V420.07H1043.46V416.8Z" fill="#00ADFF"/>
<path d="M1057.49 193.883H1052.23V188.619H1048.2V193.883H1042.94V197.913H1048.2V203.177H1052.23V197.913H1057.49V193.883Z" fill="#75B8F9"/>
<path d="M1171.66 202.665H1166.77V197.775H1163.03V202.665H1158.15V206.404H1163.03V211.294H1166.77V206.404H1171.66V202.665Z" fill="#00ADFF"/>
<path d="M1428.51 571.158H1424.66V567.3H1421.71V571.158H1417.85V574.113H1421.71V577.97H1424.66V574.113H1428.51V571.158Z" fill="#41BFB3"/>
<path d="M605.497 249.772H600.677V244.949H596.992V249.772H592.172V253.459H596.992V258.282H600.677V253.459H605.497V249.772Z" fill="#41BFB3"/>
<path d="M416.232 485.719H414.484V483.973H413.153V485.719H411.405V487.054H413.153V488.8H414.484V487.054H416.232V485.719Z" fill="#00ADFF"/>
<path d="M21.4166 488.126H13.9905V480.691H8.30861V488.126H0.882446V493.807H8.30861V501.242H13.9905V493.807H21.4166V488.126Z" fill="#00ADFF"/>
<path d="M493.746 60.0841H492.506V58.843H491.561V60.0841H490.32V61.0297H491.561V62.2708H492.506V61.0297H493.746V60.0841Z" fill="#00ADFF"/>
<path d="M461.285 322.063H451.496V312.268H444.007V322.063H434.215V329.557H444.007V339.355H451.496V329.557H461.285V322.063Z" fill="#5BC7B8"/>
<path d="M1256.51 378.212H1249.51V371.214H1244.16V378.212H1237.17V383.562H1244.16V390.56H1249.51V383.562H1256.51V378.212Z" fill="#5BC7B8"/>
<path d="M1653.79 305.373H1635.77V287.347H1621.99V305.373H1603.98V319.159H1621.99V337.188H1635.77V319.159H1653.79V305.373Z" fill="#5BC7B8"/>
<path d="M1574.08 361.029H1565.76V352.7H1559.4V361.029H1551.07V367.396H1559.4V375.726H1565.76V367.396H1574.08V361.029Z" fill="#41BFB3"/>
<path d="M101.041 245.962H98.2337V243.152H96.0877V245.962H93.2803V248.109H96.0877V250.918H98.2337V248.109H101.041V245.962Z" fill="#5BC7B8"/>
<path d="M1103.14 437.355H1099.22V433.439H1096.23V437.355H1092.32V440.353H1096.23V444.27H1099.22V440.353H1103.14V437.355Z" fill="#75B8F9"/>
<path d="M1166.81 150.566H1162.04V145.787H1158.38V150.566H1153.61V154.219H1158.38V158.994H1162.04V154.219H1166.81V150.566Z" fill="#75B8F9"/>
<path d="M1706.55 463.962H1702.96V460.368H1700.21V463.962H1696.62V466.712H1700.21V470.305H1702.96V466.712H1706.55V463.962Z" fill="#75B8F9"/>
<path d="M1558.78 163.856H1550.08V155.148H1543.42V163.856H1534.72V170.514H1543.42V179.218H1550.08V170.514H1558.78V163.856Z" fill="#75B8F9"/>
<path d="M394.828 170.924H392.063V168.162H389.953V170.924H387.189V173.04H389.953V175.802H392.063V173.04H394.828V170.924Z" fill="#5BC7B8"/>
<path d="M1350.63 426.595H1340.01V415.969H1331.89V426.595H1321.27V434.723H1331.89V445.349H1340.01V434.723H1350.63V426.595Z" fill="#41BFB3"/>
<path d="M263.582 54.7416H260.861V52.019H258.778V54.7416H256.058V56.8219H258.778V59.5444H260.861V56.8219H263.582V54.7416Z" fill="#00ADFF"/>
<path d="M579.883 340.23H573.599V333.942H568.791V340.23H562.507V345.037H568.791V351.325H573.599V345.037H579.883V340.23Z" fill="#75B8F9"/>
<path d="M1303.92 235.529H1296.25V227.861H1290.39V235.529H1282.73V241.395H1290.39V249.066H1296.25V241.395H1303.92V235.529Z" fill="#5BC7B8"/>
<path d="M1783.93 284.708H1774.24V275.011H1766.82V284.708H1757.13V292.127H1766.82V301.823H1774.24V292.127H1783.93V284.708Z" fill="#5BC7B8"/>
<path d="M332.052 220.848H325.389V214.182H320.29V220.848H313.628V225.946H320.29V232.617H325.389V225.946H332.052V220.848Z" fill="#41BFB3"/>
<path d="M1416.86 257.679H1408.03V248.85H1401.29V257.679H1392.46V264.432H1401.29V273.262H1408.03V264.432H1416.86V257.679Z" fill="#41BFB3"/>
<path d="M1687.18 208.544H1681.25V202.61H1676.71V208.544H1670.78V213.082H1676.71V219.02H1681.25V213.082H1687.18V208.544Z" fill="#75B8F9"/>
<path d="M1655.76 436.61H1649.28V430.125H1644.33V436.61H1637.85V441.571H1644.33V448.052H1649.28V441.571H1655.76V436.61Z" fill="#00ADFF"/>
<path d="M664.595 275.594H659.591V270.587H655.763V275.594H650.759V279.424H655.763V284.432H659.591V279.424H664.595V275.594Z" fill="#75B8F9"/>
<path d="M543.875 535.134H540.91V532.167H538.642V535.134H535.677V537.404H538.642V540.374H540.91V537.404H543.875V535.134Z" fill="#00ADFF"/>
<path d="M250.049 346.562H233.893V330.4H221.537V346.562H205.385V358.925H221.537V375.091H233.893V358.925H250.049V346.562Z" fill="#5BC7B8"/>
<path d="M1686.15 262.435H1675.77V252.053H1667.84V262.435H1657.47V270.374H1667.84V280.752H1675.77V270.374H1686.15V262.435Z" fill="#75B8F9"/>
<path d="M545.174 368.094H534.188V357.101H525.786V368.094H514.8V376.498H525.786V387.49H534.188V376.498H545.174V368.094Z" fill="#41BFB3"/>
<path d="M1816.47 225.095H1809.24V217.865H1803.71V225.095H1796.49V230.627H1803.71V237.857H1809.24V230.627H1816.47V225.095Z" fill="#00ADFF"/>
<path d="M1810.55 53.9496H1808.14V51.5383H1806.3V53.9496H1803.89V55.7935H1806.3V58.2048H1808.14V55.7935H1810.55V53.9496Z" fill="#5BC7B8"/>
<path d="M1790.34 458.966H1784.99V453.615H1780.9V458.966H1775.56V463.059H1780.9V468.414H1784.99V463.059H1790.34V458.966Z" fill="#41BFB3"/>
<path d="M1589.57 466.322H1586.29V463.036H1583.77V466.322H1580.49V468.836H1583.77V472.122H1586.29V468.836H1589.57V466.322Z" fill="#41BFB3"/>
<path d="M1788.12 324.856H1780.28V317.02H1774.29V324.856H1766.46V330.853H1774.29V338.69H1780.28V330.853H1788.12V324.856Z" fill="#41BFB3"/>
<path d="M83.6768 137.379H78.5266V132.226H74.5851V137.379H69.4348V141.323H74.5851V146.477H78.5266V141.323H83.6768V137.379Z" fill="#75B8F9"/>
<path d="M950.837 332.622H941.962V323.741H935.174V332.622H926.299V339.415H935.174V348.295H941.962V339.415H950.837V332.622Z" fill="#00ADFF"/>
<path d="M838.988 472.401H831.955V465.361H826.573V472.401H819.541V477.783H826.573V484.824H831.955V477.783H838.988V472.401Z" fill="#00ADFF"/>
<path d="M679.274 559.932H677.002V557.663H675.266V559.932H672.998V561.67H675.266V563.943H677.002V561.67H679.274V559.932Z" fill="#00ADFF"/>
<path d="M841.622 164.612H837.059V160.046H833.57V164.612H829.006V168.103H833.57V172.67H837.059V168.103H841.622V164.612Z" fill="#5BC7B8"/>
<path d="M1087.14 606.574H1085.62V605.057H1084.47V606.574H1082.95V607.736H1084.47V609.253H1085.62V607.736H1087.14V606.574Z" fill="#00ADFF"/>
<path d="M922.385 183.32H916.282V177.213H911.612V183.32H905.505V187.992H911.612V194.103H916.282V187.992H922.385V183.32Z" fill="#00ADFF"/>
<path d="M995.544 544.33H992.839V541.619H990.768V544.33H988.063V546.398H990.768V549.105H992.839V546.398H995.544V544.33Z" fill="#41BFB3"/>
<path d="M147.87 72.4401H145.256V69.8279H143.259V72.4401H140.649V74.4416H143.259V77.0538H145.256V74.4416H147.87V72.4401Z" fill="#75B8F9"/>
<path d="M1021.34 373.881H1013.63V366.167H1007.74V373.881H1000.03V379.78H1007.74V387.49H1013.63V379.78H1021.34V373.881Z" fill="#00ADFF"/>
<path d="M887.443 513.897H886.427V512.881H885.648V513.897H884.632V514.677H885.648V515.694H886.427V514.677H887.443V513.897Z" fill="#5BC7B8"/>
<path d="M1735.55 320.581H1729.09V314.116H1724.15V320.581H1717.68V325.53H1724.15V331.995H1729.09V325.53H1735.55V320.581Z" fill="#5BC7B8"/>
<path d="M279.336 248.72H268.433V237.814H260.098V248.72H249.198V257.065H260.098V267.97H268.433V257.065H279.336V248.72Z" fill="#00ADFF"/>
<path d="M618.018 445.349H612.368V439.695H608.044V445.349H602.394V449.671H608.044V455.325H612.368V449.671H618.018V445.349Z" fill="#41BFB3"/>
<path d="M41.1948 342.578H30.6225V331.999H22.5388V342.578H11.9666V350.671H22.5388V361.246H30.6225V350.671H41.1948V342.578Z" fill="#41BFB3"/>
<path d="M1696.23 322.662H1690.43V316.866H1686V322.662H1680.21V327.098H1686V332.894H1690.43V327.098H1696.23V322.662Z" fill="#5BC7B8"/>
<path d="M353.499 529.657H347.66V523.814H343.191V529.657H337.352V534.125H343.191V539.972H347.66V534.125H353.499V529.657Z" fill="#00ADFF"/>
<path d="M1269.61 207.783H1257.16V195.325H1247.64V207.783H1235.19V217.31H1247.64V229.768H1257.16V217.31H1269.61V207.783Z" fill="#75B8F9"/>
<path d="M1113.48 226.013H1106.71V219.24H1101.53V226.013H1094.77V231.191H1101.53V237.963H1106.71V231.191H1113.48V226.013Z" fill="#00ADFF"/>
<path d="M142.752 184.257H135.566V177.071H130.073V184.257H122.887V189.754H130.073V196.944H135.566V189.754H142.752V184.257Z" fill="#00ADFF"/>
<path d="M408.168 234.516H404.542V230.887H401.77V234.516H398.143V237.294H401.77V240.918H404.542V237.294H408.168V234.516Z" fill="#75B8F9"/>
<path d="M1448.25 192.724H1439.96V184.427H1433.61V192.724H1425.32V199.072H1433.61V207.369H1439.96V199.072H1448.25V192.724Z" fill="#00ADFF"/>
<path d="M1111.69 399.22H1102.83V390.363H1096.06V399.22H1087.21V405.996H1096.06V414.858H1102.83V405.996H1111.69V399.22Z" fill="#00ADFF"/>
<path d="M1569.8 96.5963H1566.03V92.8218H1563.15V96.5963H1559.37V99.4843H1563.15V103.255H1566.03V99.4843H1569.8V96.5963Z" fill="#00ADFF"/>
<path d="M981.794 369.023H972.761V359.985H965.851V369.023H956.814V375.938H965.851V384.977H972.761V375.938H981.794V369.023Z" fill="#5BC7B8"/>
<path d="M1559.7 275.988H1555.19V271.473H1551.74V275.988H1547.23V279.44H1551.74V283.955H1555.19V279.44H1559.7V275.988Z" fill="#00ADFF"/>
<path d="M1038.95 6.39H1036.4V3.84082H1034.46V6.39H1031.91V8.3403H1034.46V10.8895H1036.4V8.3403H1038.95V6.39Z" fill="#41BFB3"/>
<path d="M793.096 173.95H789.052V169.904H785.961V173.95H781.917V177.043H785.961V181.089H789.052V177.043H793.096V173.95Z" fill="#00ADFF"/>
<path d="M317.278 611.897H313.25V607.87H310.171V611.897H306.143V614.982H310.171V619.009H313.25V614.982H317.278V611.897Z" fill="#41BFB3"/>
<path d="M284.506 555.662H282.47V553.625H280.915V555.662H278.879V557.218H280.915V559.255H282.47V557.218H284.506V555.662Z" fill="#00ADFF"/>
<path d="M747.122 281.37H741.979V276.225H738.046V281.37H732.903V285.306H738.046V290.456H741.979V285.306H747.122V281.37Z" fill="#00ADFF"/>
<path d="M633.753 342.133H625.023V333.398H618.349V342.133H609.624V348.811H618.349V357.542H625.023V348.811H633.753V342.133Z" fill="#00ADFF"/>
<path d="M84.0744 10.2866H82.5939V8.80518H81.4639V10.2866H79.9873V11.4174H81.4639V12.8949H82.5939V11.4174H84.0744V10.2866Z" fill="#41BFB3"/>
<path d="M320.771 291.477H312.226V282.927H305.694V291.477H297.149V298.013H305.694V306.563H312.226V298.013H320.771V291.477Z" fill="#41BFB3"/>
<path d="M722.248 154.494H716.452V148.695H712.019V154.494H706.223V158.931H712.019V164.731H716.452V158.931H722.248V154.494Z" fill="#41BFB3"/>
<path d="M175.653 589.604H174.645V588.596H173.873V589.604H172.865V590.377H173.873V591.385H174.645V590.377H175.653V589.604Z" fill="#00ADFF"/>
<path d="M1174.64 423.36H1169.28V417.994H1165.18V423.36H1159.83V427.462H1165.18V432.824H1169.28V427.462H1174.64V423.36Z" fill="#00ADFF"/>
<path d="M1001.52 104.717H1000.12V103.314H999.052V104.717H997.65V105.788H999.052V107.191H1000.12V105.788H1001.52V104.717Z" fill="#75B8F9"/>
<path d="M893.602 235.682H886.797V228.874H881.596V235.682H874.792V240.887H881.596V247.695H886.797V240.887H893.602V235.682Z" fill="#00ADFF"/>
<path d="M801.113 465.108H794.652V458.643H789.71V465.108H783.252V470.049H789.71V476.515H794.652V470.049H801.113V465.108Z" fill="#75B8F9"/>
<path d="M256.963 408.577H249.143V400.752H243.162V408.577H235.342V414.562H243.162V422.387H249.143V414.562H256.963V408.577Z" fill="#41BFB3"/>
<path d="M1627.84 377.42H1622.85V372.436H1619.04V377.42H1614.06V381.238H1619.04V386.222H1622.85V381.238H1627.84V377.42Z" fill="#00ADFF"/>
<path d="M156.588 422.115H147.992V413.514H141.417V422.115H132.817V428.695H141.417V437.3H147.992V428.695H156.588V422.115Z" fill="#41BFB3"/>
<path d="M441.046 394.905H436.353V390.209H432.762V394.905H428.068V398.499H432.762V403.195H436.353V398.499H441.046V394.905Z" fill="#41BFB3"/>
<path d="M1520.24 506.746H1517.34V503.85H1515.13V506.746H1512.24V508.961H1515.13V511.856H1517.34V508.961H1520.24V506.746Z" fill="#00ADFF"/>
<path d="M369.879 389.854H364.001V383.968H359.5V389.854H353.617V394.354H359.5V400.24H364.001V394.354H369.879V389.854Z" fill="#00ADFF"/>
<path d="M1502.94 328.642H1486.35V312.039H1473.67V328.642H1457.07V341.337H1473.67V357.94H1486.35V341.337H1502.94V328.642Z" fill="#75B8F9"/>
<path d="M368.151 16.7245H366.367V14.9397H365.001V16.7245H363.217V18.0917H365.001V19.8765H366.367V18.0917H368.151V16.7245Z" fill="#00ADFF"/>
<path d="M1056.23 270.697H1045.43V259.894H1037.18V270.697H1026.37V278.963H1037.18V289.767H1045.43V278.963H1056.23V270.697Z" fill="#00ADFF"/>
<path d="M707.833 17.8435H707.428V17.4417H707.12V17.8435H706.715V18.1548H707.12V18.5567H707.428V18.1548H707.833V17.8435Z" fill="#00ADFF"/>
<path d="M656.5 384.019H650.523V378.034H645.951V384.019H639.97V388.594H645.951V394.575H650.523V388.594H656.5V384.019Z" fill="#00ADFF"/>
<path d="M1784.76 130.13H1778.52V123.889H1773.75V130.13H1767.52V134.905H1773.75V141.142H1778.52V134.905H1784.76V130.13Z" fill="#00ADFF"/>
<path d="M1567.21 1.91013H1565.53V0.231689H1564.25V1.91013H1562.58V3.19063H1564.25V4.86513H1565.53V3.19063H1567.21V1.91013Z" fill="#75B8F9"/>
<path d="M1228.58 407.387H1219.99V398.794H1213.42V407.387H1204.83V413.959H1213.42V422.552H1219.99V413.959H1228.58V407.387Z" fill="#75B8F9"/>
<path d="M207.39 185.573H201.243V179.427H196.546V185.573H190.399V190.278H196.546V196.424H201.243V190.278H207.39V185.573Z" fill="#00ADFF"/>
<path d="M308.832 479.596H305.261V476.022H302.528V479.596H298.953V482.33H302.528V485.903H305.261V482.33H308.832V479.596Z" fill="#41BFB3"/>
<path d="M875.119 287.083H866.311V278.27H859.573V287.083H850.761V293.825H859.573V302.642H866.311V293.825H875.119V287.083Z" fill="#00ADFF"/>
<path d="M191.671 488.181H184.395V480.904H178.831V488.181H171.554V493.752H178.831V501.029H184.395V493.752H191.671V488.181Z" fill="#5BC7B8"/>
<path d="M217.316 92.5224H215.477V90.6824H214.068V92.5224H212.229V93.9329H214.068V95.7729H215.477V93.9329H217.316V92.5224Z" fill="#00ADFF"/>
</svg>
