<svg width="1863" height="788" viewBox="0 0 1863 788" fill="none" xmlns="http://www.w3.org/2000/svg">
<mask id="mask0_1_15199" style="mask-type:luminance" maskUnits="userSpaceOnUse" x="0" y="0" width="1863" height="788">
<path d="M-0.000244141 0H1862.47V788H-0.000244141V0Z" fill="white"/>
</mask>
<g mask="url(#mask0_1_15199)">
<path d="M143.492 503.753H150.223V496.633H155.371V503.753H162.102V509.198H155.371V516.317H150.223V509.198H143.492V503.753Z" fill="#00ADFF"/>
<path d="M270.24 424.531H276.737V417.66H281.706V424.531H288.202V429.787H281.706V436.658H276.737V429.787H270.24V424.531Z" fill="#5BC7B8"/>
<path d="M1800.42 133.148H1801.8V131.683H1802.86V133.148H1804.25V134.267H1802.86V135.733H1801.8V134.267H1800.42V133.148Z" fill="#00ADFF"/>
<path d="M474.435 327.962H482.384V319.558H488.459V327.962H496.408V334.392H488.459V342.796H482.384V334.392H474.435V327.962Z" fill="#41BFB3"/>
<path d="M146.684 414.279H150.935V409.784H154.186V414.279H158.44V417.719H154.186V422.214H150.935V417.719H146.684V414.279Z" fill="#41BFB3"/>
<path d="M213.007 378.985H221.403V370.108H227.821V378.985H236.213V385.773H227.821V394.654H221.403V385.773H213.007V378.985Z" fill="#5BC7B8"/>
<path d="M225.665 508.93H227.568V506.916H229.024V508.93H230.932V510.47H229.024V512.488H227.568V510.47H225.665V508.93Z" fill="#00ADFF"/>
<path d="M524.677 385.773H534.324V375.565H541.707V385.773H551.358V393.578H541.707V403.787H534.324V393.578H524.677V385.773Z" fill="#00ADFF"/>
<path d="M1830.65 278.392H1836.33V272.392H1840.66V278.392H1846.34V282.979H1840.66V288.979H1836.33V282.979H1830.65V278.392Z" fill="#5BC7B8"/>
<path d="M554.182 424.689H565.774V412.427H574.643V424.689H586.235V434.07H574.643V446.331H565.774V434.07H554.182V424.689Z" fill="#5BC7B8"/>
<path d="M90.0577 244.871H95.8834V238.713H100.335V244.871H106.161V249.583H100.335V255.741H95.8834V249.583H90.0577V244.871Z" fill="#41BFB3"/>
<path d="M726.096 509.241H728.708V506.475H730.704V509.241H733.315V511.353H730.704V514.115H728.708V511.353H726.096V509.241Z" fill="#5BC7B8"/>
<path d="M503.702 155.851H505.568V153.877H506.998V155.851H508.864V157.36H506.998V159.334H505.568V157.36H503.702V155.851Z" fill="#75B8F9"/>
<path d="M406.373 604.546H409.308V601.441H411.554V604.546H414.489V606.921H411.554V610.026H409.308V606.921H406.373V604.546Z" fill="#00ADFF"/>
<path d="M814.645 445.906H820.471V439.743H824.926V445.906H830.752V450.622H824.926V456.78H820.471V450.622H814.645V445.906Z" fill="#00ADFF"/>
<path d="M897.76 418.456H911.878V403.519H922.68V418.456H936.798V429.878H922.68V444.814H911.878V429.878H897.76V418.456Z" fill="#5BC7B8"/>
<path d="M977.88 486.235H981.11V482.823H983.579V486.235H986.809V488.848H983.579V492.264H981.11V488.848H977.88V486.235Z" fill="#5BC7B8"/>
<path d="M116.307 340.514H121.247V335.29H125.024V340.514H129.967V344.514H125.024V349.738H121.247V344.514H116.307V340.514Z" fill="#00ADFF"/>
<path d="M1095.34 708.837H1096.31V707.813H1097.05V708.837H1098.02V709.621H1097.05V710.646H1096.31V709.621H1095.34V708.837Z" fill="#5BC7B8"/>
<path d="M598.964 582.454H601.918V579.33H604.179V582.454H607.133V584.842H604.179V587.966H601.918V584.842H598.964V582.454Z" fill="#00ADFF"/>
<path d="M970.963 575.323H975.064V570.985H978.204V575.323H982.309V578.644H978.204V582.986H975.064V578.644H970.963V575.323Z" fill="#41BFB3"/>
<path d="M472.591 575.067H477.467V569.909H481.196V575.067H486.068V579.011H481.196V584.164H477.467V579.011H472.591V575.067Z" fill="#00ADFF"/>
<path d="M690.962 272.435H697.291V265.741H702.13V272.435H708.462V277.553H702.13V284.251H697.291V277.553H690.962V272.435Z" fill="#00ADFF"/>
<path d="M55.2552 522.814H57.2517V520.706H58.7754V522.814H60.7681V524.43H58.7754V526.538H57.2517V524.43H55.2552V522.814Z" fill="#41BFB3"/>
<path d="M280.637 547.613H285.718V542.242H289.603V547.613H294.684V551.726H289.603V557.096H285.718V551.726H280.637V547.613Z" fill="#75B8F9"/>
<path d="M651.922 503.8H655.963V499.525H659.055V503.8H663.1V507.07H659.055V511.345H655.963V507.07H651.922V503.8Z" fill="#00ADFF"/>
<path d="M351.642 296.65H354.641V293.479H356.931V296.65H359.926V299.074H356.931V302.241H354.641V299.074H351.642V296.65Z" fill="#75B8F9"/>
<path d="M530.648 289.665H535.271V284.775H538.81V289.665H543.432V293.404H538.81V298.293H535.271V293.404H530.648V289.665Z" fill="#00ADFF"/>
<path d="M1066.25 336.771H1070.81V331.949H1074.29V336.771H1078.85V340.459H1074.29V345.282H1070.81V340.459H1066.25V336.771Z" fill="#41BFB3"/>
<path d="M450.383 465.211H456.999V458.214H462.057V465.211H468.673V470.562H462.057V477.559H456.999V470.562H450.383V465.211Z" fill="#5BC7B8"/>
<path d="M63.3833 420.264H80.425V402.239H93.4623V420.264H110.504V434.054H93.4623V452.08H80.425V434.054H63.3833V420.264Z" fill="#5BC7B8"/>
<path d="M315.771 102.247H317.242V100.691H318.367V102.247H319.838V103.437H318.367V104.993H317.242V103.437H315.771V102.247Z" fill="#75B8F9"/>
<path d="M1803.44 404.512H1811.31V396.187H1817.34V404.512H1825.21V410.883H1817.34V419.212H1811.31V410.883H1803.44V404.512Z" fill="#41BFB3"/>
<path d="M595.47 524.355H599.172V520.439H602.007V524.355H605.709V527.353H602.007V531.27H599.172V527.353H595.47V524.355Z" fill="#75B8F9"/>
<path d="M606.872 387.558H618.978V374.749H628.242V387.558H640.348V397.353H628.242V410.162H618.978V397.353H606.872V387.558Z" fill="#00ADFF"/>
<path d="M1773.42 550.962H1776.81V547.368H1779.41V550.962H1782.81V553.712H1779.41V557.305H1776.81V553.712H1773.42V550.962Z" fill="#75B8F9"/>
<path d="M164.43 250.856H172.658V242.148H178.953V250.856H187.186V257.514H178.953V266.218H172.658V257.514H164.43V250.856Z" fill="#75B8F9"/>
<path d="M384.135 519.879H394.181V509.253H401.865V519.879H411.912V528.007H401.865V538.633H394.181V528.007H384.135V519.879Z" fill="#41BFB3"/>
<path d="M1097.56 444.038H1103.5V437.75H1108.05V444.038H1114V448.849H1108.05V455.137H1103.5V448.849H1097.56V444.038Z" fill="#75B8F9"/>
<path d="M405.531 322.528H412.783V314.861H418.326V322.528H425.579V328.395H418.326V336.066H412.783V328.395H405.531V322.528Z" fill="#5BC7B8"/>
<path d="M298.685 344.679H307.032V335.849H313.417V344.679H321.765V351.432H313.417V360.262H307.032V351.432H298.685V344.679Z" fill="#41BFB3"/>
<path d="M42.9593 295.543H48.5689V289.61H52.8638V295.543H58.4736V300.082H52.8638V306.02H48.5689V300.082H42.9593V295.543Z" fill="#75B8F9"/>
<path d="M348.375 185.42H351.657V181.945H354.171V185.42H357.457V188.076H354.171V191.551H351.657V188.076H348.375V185.42Z" fill="#41BFB3"/>
<path d="M1821.47 523.61H1827.6V517.125H1832.29V523.61H1838.42V528.571H1832.29V535.052H1827.6V528.571H1821.47V523.61Z" fill="#00ADFF"/>
<path d="M1010.34 362.594H1015.07V357.587H1018.69V362.594H1023.43V366.424H1018.69V371.432H1015.07V366.424H1010.34V362.594Z" fill="#75B8F9"/>
<path d="M1743.97 491.306H1746.27V488.875H1748.02V491.306H1750.32V493.166H1748.02V495.593H1746.27V493.166H1743.97V491.306Z" fill="#00ADFF"/>
<path d="M43.9352 349.435H53.7505V339.053H61.2562V349.435H71.0679V357.374H61.2562V367.752H53.7505V357.374H43.9352V349.435Z" fill="#75B8F9"/>
<path d="M784.808 480.507H790.895V474.069H795.551V480.507H801.638V485.432H795.551V491.87H790.895V485.432H784.808V480.507Z" fill="#41BFB3"/>
<path d="M610.604 693.574H612.038V692.057H613.137V693.574H614.571V694.736H613.137V696.253H612.038V694.736H610.604V693.574Z" fill="#00ADFF"/>
<path d="M658.056 430.673H665.35V422.963H670.926V430.673H678.216V436.572H670.926V444.286H665.35V436.572H658.056V430.673Z" fill="#00ADFF"/>
<path d="M1760.32 410.335H1766.44V403.87H1771.11V410.335H1777.23V415.284H1771.11V421.749H1766.44V415.284H1760.32V410.335Z" fill="#5BC7B8"/>
<path d="M34.3993 409.661H39.8787V403.866H44.0729V409.661H49.5522V414.098H44.0729V419.894H39.8787V414.098H34.3993V409.661Z" fill="#5BC7B8"/>
<path d="M1774.23 683.649H1776.84V680.895H1778.83V683.649H1781.43V685.753H1778.83V688.507H1776.84V685.753H1774.23V683.649Z" fill="#75B8F9"/>
<path d="M585.688 313.013H592.091V306.24H596.986V313.013H603.389V318.19H596.986V324.963H592.091V318.19H585.688V313.013Z" fill="#00ADFF"/>
<path d="M953.642 318.502H959.431V312.379H963.856V318.502H969.641V323.182H963.856V329.301H959.431V323.182H953.642V318.502Z" fill="#00ADFF"/>
<path d="M1763.17 457.804H1776.05V444.176H1785.91V457.804H1798.79V468.226H1785.91V481.85H1776.05V468.226H1763.17V457.804Z" fill="#75B8F9"/>
<path d="M271.671 262.565H279.516V254.268H285.517V262.565H293.365V268.913H285.517V277.21H279.516V268.913H271.671V262.565Z" fill="#00ADFF"/>
<path d="M574.942 462.773H583.315V453.916H589.722V462.773H598.1V469.549H589.722V478.411H583.315V469.549H574.942V462.773Z" fill="#00ADFF"/>
<path d="M154.004 183.596H157.569V179.822H160.299V183.596H163.868V186.484H160.299V190.255H157.569V186.484H154.004V183.596Z" fill="#00ADFF"/>
<path d="M532.257 455.511H536.712V450.799H540.121V455.511H544.576V459.116H540.121V463.829H536.712V459.116H532.257V455.511Z" fill="#5BC7B8"/>
<path d="M354.507 377.05H364.374V366.609H371.925V377.05H381.792V385.033H371.925V395.474H364.374V385.033H354.507V377.05Z" fill="#00ADFF"/>
<path d="M163.559 362.988H167.827V358.473H171.091V362.988H175.359V366.44H171.091V370.955H167.827V366.44H163.559V362.988Z" fill="#00ADFF"/>
<path d="M932.264 368.37H937.133V363.225H940.854V368.37H945.719V372.306H940.854V377.456H937.133V372.306H932.264V368.37Z" fill="#00ADFF"/>
<path d="M398.025 428.605H407.58V418.499H414.888V428.605H424.442V436.335H414.888V446.441H407.58V436.335H398.025V428.605Z" fill="#75B8F9"/>
<path d="M1794.25 350.207H1804.76V339.084H1812.8V350.207H1823.32V358.717H1812.8V369.84H1804.76V358.717H1794.25V350.207Z" fill="#75B8F9"/>
<path d="M330.402 433.294H342.843V420.13H352.364V433.294H364.806V443.36H352.364V456.524H342.843V443.36H330.402V433.294Z" fill="#41BFB3"/>
<path d="M527.828 510.36H532.898V504.994H536.776V510.36H541.845V514.461H536.776V519.824H532.898V514.461H527.828V510.36Z" fill="#00ADFF"/>
<path d="M691.596 191.716H692.922V190.314H693.939V191.716H695.265V192.788H693.939V194.191H692.922V192.788H691.596V191.716Z" fill="#75B8F9"/>
<path d="M880.789 525.962H886.898V519.501H891.573V525.962H897.686V530.907H891.573V537.373H886.898V530.907H880.789V525.962Z" fill="#75B8F9"/>
<path d="M99.0983 464.42H103.81V459.435H107.42V464.42H112.132V468.237H107.42V473.221H103.81V468.237H99.0983V464.42Z" fill="#00ADFF"/>
<path d="M200.889 593.746H203.627V590.85H205.721V593.746H208.458V595.96H205.721V598.856H203.627V595.96H200.889V593.746Z" fill="#00ADFF"/>
<path d="M568.709 341.484H571.253V338.797H573.198V341.484H575.738V343.54H573.198V346.231H571.253V343.54H568.709V341.484Z" fill="#00ADFF"/>
<path d="M403.996 391.151H411.07V383.669H416.482V391.151H423.56V396.876H416.482V404.362H411.07V396.876H403.996V391.151Z" fill="#75B8F9"/>
<path d="M639.845 357.697H650.059V346.893H657.874V357.697H668.087V365.963H657.874V376.766H650.059V365.963H639.845V357.697Z" fill="#00ADFF"/>
<path d="M969.436 104.843H969.816V104.441H970.11V104.843H970.49V105.155H970.11V105.556H969.816V105.155H969.436V104.843Z" fill="#00ADFF"/>
<path d="M666.81 397.128H673.858V389.674H679.244V397.128H686.292V402.829H679.244V410.28H673.858V402.829H666.81V397.128Z" fill="#00ADFF"/>
<path d="M1006.46 533.011H1012.11V527.03H1016.44V533.011H1022.1V537.589H1016.44V543.57H1012.11V537.589H1006.46V533.011Z" fill="#00ADFF"/>
<path d="M476.8 494.387H484.928V485.794H491.141V494.387H499.266V500.959H491.141V509.552H484.928V500.959H476.8V494.387Z" fill="#75B8F9"/>
<path d="M99.2728 510.829H107.397V502.236H113.61V510.829H121.734V517.401H113.61V525.994H107.397V517.401H99.2728V510.829Z" fill="#75B8F9"/>
<path d="M744.907 681.297H745.831V680.32H746.539V681.297H747.462V682.046H746.539V683.023H745.831V682.046H744.907V681.297Z" fill="#5BC7B8"/>
<path d="M786.321 388.705H794.653V379.891H801.027V388.705H809.363V395.446H801.027V404.264H794.653V395.446H786.321V388.705Z" fill="#00ADFF"/>
<path d="M1044.68 412.258H1061.87V394.075H1075.02V412.258H1092.21V426.162H1075.02V444.345H1061.87V426.162H1044.68V412.258Z" fill="#75B8F9"/>
<path d="M852.282 384.107H857.289V378.815H861.114V384.107H866.117V388.153H861.114V393.448H857.289V388.153H852.282V384.107Z" fill="#5BC7B8"/>
<path d="M364.072 503.753H370.803V496.633H375.955V503.753H382.686V509.198H375.955V516.317H370.803V509.198H364.072V503.753Z" fill="#00ADFF"/>
<path d="M490.825 424.531H497.321V417.66H502.286V424.531H508.783V429.787H502.286V436.658H497.321V429.787H490.825V424.531Z" fill="#5BC7B8"/>
<path d="M272.211 133.148H273.597V131.683H274.655V133.148H276.041V134.267H274.655V135.733H273.597V134.267H272.211V133.148Z" fill="#00ADFF"/>
<path d="M695.019 327.962H702.964V319.558H709.043V327.962H716.988V334.392H709.043V342.796H702.964V334.392H695.019V327.962Z" fill="#41BFB3"/>
<path d="M258.31 129.929H262.523V125.473H265.745V129.929H269.958V133.337H265.745V137.794H262.523V133.337H258.31V129.929Z" fill="#5BC7B8"/>
<path d="M686.485 374.651H697.339V363.173H705.638V374.651H716.489V383.429H705.638V394.906H697.339V383.429H686.485V374.651Z" fill="#75B8F9"/>
<path d="M446.248 508.93H448.152V506.916H449.608V508.93H451.512V510.47H449.608V512.488H448.152V510.47H446.248V508.93Z" fill="#00ADFF"/>
<path d="M751.817 365.612H761.464V355.404H768.847V365.612H778.499V373.421H768.847V383.626H761.464V373.421H751.817V365.612Z" fill="#00ADFF"/>
<path d="M302.45 278.392H308.123V272.392H312.459V278.392H318.132V282.979H312.459V288.979H308.123V282.979H302.45V278.392Z" fill="#5BC7B8"/>
<path d="M774.762 424.689H786.358V412.427H795.223V424.689H806.815V434.07H795.223V446.331H786.358V434.07H774.762V424.689Z" fill="#5BC7B8"/>
<path d="M310.641 244.871H316.464V238.713H320.919V244.871H326.741V249.583H320.919V255.741H316.464V249.583H310.641V244.871Z" fill="#41BFB3"/>
<path d="M1077.35 470.952H1082.22V465.807H1085.94V470.952H1090.8V474.888H1085.94V480.034H1082.22V474.888H1077.35V470.952Z" fill="#00ADFF"/>
<path d="M1813.11 560.331H1817.47V555.721H1820.8V560.331H1825.16V563.853H1820.8V568.463H1817.47V563.853H1813.11V560.331Z" fill="#75B8F9"/>
<path d="M626.953 604.546H629.888V601.441H632.134V604.546H635.069V606.921H632.134V610.026H629.888V606.921H626.953V604.546Z" fill="#00ADFF"/>
<path d="M1035.23 445.906H1041.06V439.743H1045.51V445.906H1051.34V450.622H1045.51V456.78H1041.06V450.622H1035.23V445.906Z" fill="#00ADFF"/>
<path d="M235.416 292.289H241.469V285.886H246.099V292.289H252.156V297.186H246.099V303.589H241.469V297.186H235.416V292.289Z" fill="#5BC7B8"/>
<path d="M336.887 340.514H341.83V335.29H345.608V340.514H350.547V344.514H345.608V349.738H341.83V344.514H336.887V340.514Z" fill="#00ADFF"/>
<path d="M844.434 432.947H854.063V422.762H861.427V432.947H871.056V440.74H861.427V450.925H854.063V440.74H844.434V432.947Z" fill="#00ADFF"/>
<path d="M1782.84 510.218H1788.26V504.493H1792.4V510.218H1797.8V514.595H1792.4V520.316H1788.26V514.595H1782.84V510.218Z" fill="#41BFB3"/>
<path d="M1834.49 235.324H1841.71V227.685H1847.23V235.324H1854.45V241.163H1847.23V248.799H1841.71V241.163H1834.49V235.324Z" fill="#00ADFF"/>
<path d="M485.494 184.747H488.835V181.212H491.395V184.747H494.736V187.449H491.395V190.984H488.835V187.449H485.494V184.747Z" fill="#75B8F9"/>
<path d="M94.6317 380.643H116.963V357.019H134.042V380.643H156.376V398.708H134.042V422.329H116.963V398.708H94.6317V380.643Z" fill="#75B8F9"/>
<path d="M1768.78 551.044H1773.83V545.694H1777.7V551.044H1782.76V555.138H1777.7V560.489H1773.83V555.138H1768.78V551.044Z" fill="#00ADFF"/>
<path d="M1806.27 468.482H1815.58V458.636H1822.7V468.482H1832V476.011H1822.7V485.853H1815.58V476.011H1806.27V468.482Z" fill="#41BFB3"/>
<path d="M501.78 533.63H506.861V528.255H510.746V533.63H515.827V537.739H510.746V543.113H506.861V537.739H501.78V533.63Z" fill="#75B8F9"/>
<path d="M872.505 503.8H876.546V499.525H879.638V503.8H883.68V507.07H879.638V511.345H876.546V507.07H872.505V503.8Z" fill="#00ADFF"/>
<path d="M859.237 280.883H864.213V275.619H868.02V280.883H873V284.913H868.02V290.177H864.213V284.913H859.237V280.883Z" fill="#75B8F9"/>
<path d="M751.232 289.665H755.855V284.775H759.39V289.665H764.012V293.404H759.39V298.293H755.855V293.404H751.232V289.665Z" fill="#00ADFF"/>
<path d="M1839.37 575.126H1846.4V567.691H1851.78V575.126H1858.8V580.807H1851.78V588.242H1846.4V580.807H1839.37V575.126Z" fill="#00ADFF"/>
<path d="M670.963 465.211H677.578V458.214H682.641V465.211H689.252V470.562H682.641V477.559H677.578V470.562H670.963V465.211Z" fill="#5BC7B8"/>
<path d="M295.131 392.373H312.173V374.347H325.21V392.373H342.251V406.159H325.21V424.188H312.173V406.159H295.131V392.373Z" fill="#5BC7B8"/>
<path d="M370.531 448.029H378.406V439.7H384.425V448.029H392.3V454.396H384.425V462.725H378.406V454.396H370.531V448.029Z" fill="#41BFB3"/>
<path d="M1764.05 332.962H1766.7V330.152H1768.73V332.962H1771.39V335.109H1768.73V337.918H1766.7V335.109H1764.05V332.962Z" fill="#5BC7B8"/>
<path d="M816.05 524.355H819.756V520.439H822.587V524.355H826.29V527.353H822.587V531.27H819.756V527.353H816.05V524.355Z" fill="#75B8F9"/>
<path d="M245.213 550.962H248.61V547.368H251.21V550.962H254.607V553.712H251.21V557.305H248.61V553.712H245.213V550.962Z" fill="#75B8F9"/>
<path d="M385.01 250.856H393.242V242.148H399.537V250.856H407.766V257.514H399.537V266.218H393.242V257.514H385.01V250.856Z" fill="#75B8F9"/>
<path d="M581.918 513.595H591.965V502.969H599.649V513.595H609.695V521.723H599.649V532.349H591.965V521.723H581.918V513.595Z" fill="#41BFB3"/>
<path d="M626.111 322.528H633.363V314.861H638.91V322.528H646.159V328.395H638.91V336.066H633.363V328.395H626.111V322.528Z" fill="#5BC7B8"/>
<path d="M172.018 371.707H181.185V362.011H188.199V371.707H197.366V379.126H188.199V388.823H181.185V379.126H172.018V371.707Z" fill="#5BC7B8"/>
<path d="M519.268 344.679H527.616V335.849H534V344.679H542.348V351.432H534V360.262H527.616V351.432H519.268V344.679Z" fill="#41BFB3"/>
<path d="M263.54 295.543H269.153V289.61H273.444V295.543H279.054V300.082H273.444V306.02H269.153V300.082H263.54V295.543Z" fill="#75B8F9"/>
<path d="M293.261 523.61H299.392V517.125H304.082V523.61H310.209V528.571H304.082V535.052H299.392V528.571H293.261V523.61Z" fill="#00ADFF"/>
<path d="M264.515 349.435H274.331V339.053H281.836V349.435H291.648V357.374H281.836V367.752H274.331V357.374H264.515V349.435Z" fill="#75B8F9"/>
<path d="M141.235 312.095H148.07V304.865H153.3V312.095H160.135V317.627H153.3V324.857H148.07V317.627H141.235V312.095Z" fill="#00ADFF"/>
<path d="M146.83 140.95H149.109V138.538H150.853V140.95H153.132V142.793H150.853V145.205H149.109V142.793H146.83V140.95Z" fill="#5BC7B8"/>
<path d="M165.95 545.966H171.008V540.615H174.879V545.966H179.937V550.059H174.879V555.414H171.008V550.059H165.95V545.966Z" fill="#41BFB3"/>
<path d="M355.877 553.322H358.984V550.036H361.364V553.322H364.471V555.835H361.364V559.121H358.984V555.835H355.877V553.322Z" fill="#41BFB3"/>
<path d="M168.054 411.856H175.463V404.019H181.133V411.856H188.542V417.853H181.133V425.689H175.463V417.853H168.054V411.856Z" fill="#41BFB3"/>
<path d="M1780.48 224.379H1785.35V219.225H1789.08V224.379H1793.95V228.323H1789.08V233.476H1785.35V228.323H1780.48V224.379Z" fill="#75B8F9"/>
<path d="M960.131 419.622H968.527V410.741H974.949V419.622H983.345V426.414H974.949V435.295H968.527V426.414H960.131V419.622Z" fill="#00ADFF"/>
<path d="M1065.94 559.401H1072.59V552.36H1077.69V559.401H1084.34V564.783H1077.69V571.824H1072.59V564.783H1065.94V559.401Z" fill="#00ADFF"/>
<path d="M831.184 693.574H832.622V692.057H833.717V693.574H835.151V694.736H833.717V696.253H832.622V694.736H831.184V693.574Z" fill="#00ADFF"/>
<path d="M987.047 270.319H992.821V264.212H997.239V270.319H1003.02V274.992H997.239V281.103H992.821V274.992H987.047V270.319Z" fill="#00ADFF"/>
<path d="M893.432 460.881H900.726V453.167H906.302V460.881H913.595V466.78H906.302V474.49H900.726V466.78H893.432V460.881Z" fill="#00ADFF"/>
<path d="M1020.1 600.897H1021.06V599.881H1021.8V600.897H1022.76V601.677H1021.8V602.694H1021.06V601.677H1020.1V600.897Z" fill="#5BC7B8"/>
<path d="M217.783 407.581H223.895V401.116H228.57V407.581H234.687V412.53H228.57V418.995H223.895V412.53H217.783V407.581Z" fill="#5BC7B8"/>
<path d="M1820.66 429.578H1830.67V418.999H1838.31V429.578H1848.31V437.671H1838.31V448.246H1830.67V437.671H1820.66V429.578Z" fill="#41BFB3"/>
<path d="M254.98 409.661H260.463V403.866H264.653V409.661H270.133V414.098H264.653V419.894H260.463V414.098H254.98V409.661Z" fill="#5BC7B8"/>
<path d="M658.567 294.783H670.345V282.325H679.355V294.783H691.134V304.31H679.355V316.768H670.345V304.31H658.567V294.783Z" fill="#75B8F9"/>
<path d="M806.268 313.013H812.671V306.24H817.569V313.013H823.969V318.19H817.569V324.963H812.671V318.19H806.268V313.013Z" fill="#00ADFF"/>
<path d="M489.569 279.724H497.418V271.427H503.419V279.724H511.263V286.072H503.419V294.369H497.418V286.072H489.569V279.724Z" fill="#00ADFF"/>
<path d="M807.967 486.22H816.344V477.362H822.751V486.22H831.125V492.996H822.751V501.857H816.344V492.996H807.967V486.22Z" fill="#00ADFF"/>
<path d="M374.584 183.596H378.152V179.822H380.879V183.596H384.447V186.484H380.879V190.255H378.152V186.484H374.584V183.596Z" fill="#00ADFF"/>
<path d="M930.846 456.023H939.391V446.985H945.928V456.023H954.477V462.938H945.928V471.977H939.391V462.938H930.846V456.023Z" fill="#5BC7B8"/>
<path d="M384.139 362.988H388.408V358.473H391.671V362.988H395.939V366.44H391.671V370.955H388.408V366.44H384.139V362.988Z" fill="#00ADFF"/>
<path d="M1780.1 97.2864H1781.5V95.805H1782.57V97.2864H1783.97V98.4172H1782.57V99.8947H1781.5V98.4172H1780.1V97.2864Z" fill="#41BFB3"/>
<path d="M1693.46 676.604H1694.42V675.596H1695.15V676.604H1696.1V677.377H1695.15V678.385H1694.42V677.377H1693.46V676.604Z" fill="#00ADFF"/>
<path d="M748.408 510.36H753.478V504.994H757.356V510.36H762.425V514.461H757.356V519.824H753.478V514.461H748.408V510.36Z" fill="#00ADFF"/>
<path d="M1014.28 322.682H1020.71V315.874H1025.63V322.682H1032.07V327.887H1025.63V334.695H1020.71V327.887H1014.28V322.682Z" fill="#00ADFF"/>
<path d="M1101.77 552.108H1107.88V545.643H1112.56V552.108H1118.67V557.049H1112.56V563.515H1107.88V557.049H1101.77V552.108Z" fill="#75B8F9"/>
<path d="M319.679 464.42H324.394V459.435H328V464.42H332.716V468.237H328V473.221H324.394V468.237H319.679V464.42Z" fill="#00ADFF"/>
<path d="M421.47 593.746H424.208V590.85H426.301V593.746H429.039V595.96H426.301V598.856H424.208V595.96H421.47V593.746Z" fill="#00ADFF"/>
<path d="M437.83 415.642H453.527V399.039H465.529V415.642H481.226V428.337H465.529V444.94H453.527V428.337H437.83V415.642Z" fill="#75B8F9"/>
<path d="M860.425 357.697H870.643V346.893H878.454V357.697H888.671V365.963H878.454V376.766H870.643V365.963H860.425V357.697Z" fill="#00ADFF"/>
<path d="M1190.02 104.843H1190.4V104.441H1190.69V104.843H1191.07V105.155H1190.69V105.556H1190.4V105.155H1190.02V104.843Z" fill="#00ADFF"/>
<path d="M171.231 217.129H177.132V210.888H181.643V217.129H187.543V221.905H181.643V228.142H177.132V221.905H171.231V217.129Z" fill="#00ADFF"/>
<path d="M377.035 88.91H378.622V87.2316H379.833V88.91H381.416V90.1905H379.833V91.865H378.622V90.1905H377.035V88.91Z" fill="#75B8F9"/>
<path d="M697.384 494.387H705.508V485.794H711.722V494.387H719.846V500.959H711.722V509.552H705.508V500.959H697.384V494.387Z" fill="#75B8F9"/>
<path d="M1031.76 374.083H1040.09V365.27H1046.47V374.083H1054.8V380.825H1046.47V389.642H1040.09V380.825H1031.76V374.083Z" fill="#00ADFF"/>
</g>
</svg>
