<svg width="17" height="17" viewBox="0 0 17 17" fill="none" xmlns="http://www.w3.org/2000/svg">
<path d="M10.2708 17C10.035 17 9.81325 16.8824 9.6815 16.6848L8.47521 14.875H7.08333C6.69233 14.875 6.375 14.5577 6.375 14.1667C6.375 13.7757 6.69233 13.4583 7.08333 13.4583H8.85417C9.09075 13.4583 9.31175 13.5766 9.4435 13.7735L10.183 14.8828L11.7619 11.7243C11.878 11.4934 12.1097 11.3433 12.3682 11.3333C12.643 11.327 12.8697 11.4552 13.0029 11.6762L14.9218 14.875H16.2917C16.6827 14.875 17 15.1923 17 15.5833C17 15.9743 16.6827 16.2917 16.2917 16.2917H14.5208C14.2722 16.2917 14.0413 16.1613 13.9138 15.9481L12.4525 13.5129L10.9048 16.609C10.7915 16.835 10.5669 16.9837 10.3148 16.9993C10.3006 17 10.2857 17 10.2708 17Z" fill="white"/>
<path d="M6.375 7.08333C8.33101 7.08333 9.91667 5.49768 9.91667 3.54167C9.91667 1.58566 8.33101 0 6.375 0C4.41899 0 2.83333 1.58566 2.83333 3.54167C2.83333 5.49768 4.41899 7.08333 6.375 7.08333Z" fill="white"/>
<path d="M4.95833 14.1667C4.95833 12.9951 5.91175 12.0417 7.08333 12.0417H8.85417C9.22179 12.0417 9.57596 12.1359 9.88692 12.3087L10.4954 11.0911C10.8049 10.4741 11.3942 10.0697 12.0636 9.962C11.419 9.08013 10.3849 8.5 9.20833 8.5H3.54167C1.58596 8.5 0 10.086 0 12.0417V14.3438C0 14.637 0.238 14.875 0.53125 14.875H5.08867C5.00933 14.6526 4.95833 14.416 4.95833 14.1667Z" fill="white"/>
</svg>
