<svg width="14" height="22" viewBox="0 0 14 22" fill="none" xmlns="http://www.w3.org/2000/svg">
<path d="M7.80158 18.7542L13.2862 15.3353M4.79641 5.77691L10.7401 16.9225M7.26967 3.79229C7.35983 3.964 7.30126 4.18678 7.13885 4.28988L2.21322 7.41678C2.05081 7.51989 1.84606 7.46427 1.7559 7.29256C-0.276841 3.42127 1.04576 1.93982 2.22728 1.18976C3.4088 0.4397 5.23354 -0.0854522 7.26967 3.79229ZM7.43292 4.1032L13.2023 15.0909C13.2726 15.2247 13.3067 15.3779 13.2992 15.5322C13.2041 17.4795 12.961 19.1858 12.7998 20.155C12.7232 20.6151 12.3017 20.8851 11.9001 20.7309C11.0521 20.4052 9.57802 19.7901 7.98802 18.904C7.86258 18.8341 7.75877 18.7248 7.68845 18.5909L1.91915 7.60347L7.43292 4.1032Z" stroke="white" stroke-linecap="round"/>
</svg>
